<svg xmlns="http://www.w3.org/2000/svg" viewBox="0 0 1000 1000">
	<g transform="scale(1,-1) translate(0, -1000)">
		<path d="M984 388l-195 198q-4 4 -8.5 2t-4.5 -7v-95q-90 -15 -163 -53q-82 -42 -142.5 -111t-86.5 -151q-13 -40 -16 -82q-1 -23 0 -46q1 -4 5.5 -4.5t5.5 3.5q16 58 52 106q43 59 106 95q60 34 128 43q56 8 111 0v-103q0 -4 4.5 -6t8.5 1l195 199q2 2 2 5t-2 6zM70 748v-447 q0 -14 9.5 -23.5t23.5 -9.5h246q7 0 12 4.5t5 11.5v22q0 7 -5 12t-12 5h-224v381h568v-87q0 -7 4.5 -12t11.5 -5h21q7 0 12 5t5 12v131h-677zM747 780v55q0 13 -9.5 23t-23.5 10h-101v13q0 12 -6 23t-16.5 17t-22.5 6t-22.5 -6t-16.5 -17t-6 -23v-13h-230v13q0 19 -13 32 t-31.5 13t-31.5 -13t-13 -32v-13h-101q-14 0 -23.5 -10t-9.5 -23v-55h677z" />
	</g>
</svg>