<svg xmlns="http://www.w3.org/2000/svg" viewBox="0 0 1000 1000">
	<g transform="scale(1,-1) translate(0, -1000)">
		<path d="M500 931q-119 0 -220 -59q-99 -58 -157 -157q-59 -101 -59 -220t59 -220q58 -99 157 -157q101 -59 220 -59t220 59q99 58 157 157q59 101 59 219.5t-59 220.5q-58 99 -157 157q-101 59 -220 59zM632 685q25 0 43 -32t18 -77t-18 -77t-43.5 -32t-43 32t-17.5 77t17.5 77 t43.5 32zM368 685q26 0 43.5 -32t17.5 -77t-17.5 -77t-43 -32t-43 32t-17.5 77t17.5 77t42.5 32zM773 336q-9 -15 -41 -3q-38 -63 -98 -100q-62 -38 -134 -38t-134 38q-60 37 -98 100q-32 -12 -41 3q-6 10 3 23q9 15 35 30t44 17t23 -7q4 -7 -0.5 -17.5t-17.5 -21.5 q32 -44 80.5 -70t105.5 -26t105.5 26t80.5 70q-13 12 -17.5 22t-0.5 17q5 9 23 7t44 -17t35 -30q9 -13 3 -23z" />
	</g>
</svg>