<svg xmlns="http://www.w3.org/2000/svg" viewBox="0 0 1000 1000">
	<g transform="scale(1,-1) translate(0, -1000)">
		<path d="M892 233q-54 54 -108 107q-5 5 -6 11.5t2 12.5q26 53 21 112t-40 106.5t-90 70t-113 12.5q-40 -6 -77.5 -31.5t-63.5 -63t-32 -77.5q-10 -57 11 -111.5t67.5 -90t104 -42.5t111.5 17q5 3 11.5 2t10.5 -6l110 -110q11 -11 26 -15t29.5 0t25.5 14.5t15 25.5t0 30t-15 26z M449 453q-1 44 22.5 81t64 54.5t83.5 9.5t74 -39t39.5 -74.5t-9 -83.5t-55 -63.5t-81.5 -22.5q-37 1 -68 20t-50 50t-20 68zM670 190q3 4 0 11.5t-10 5.5l-20 -4q-10 -2 -28 -2q-13 -1 -20 -2h-1q-8 0 -16 -10l-3 -3q-8 -8 -18 -11t-21 1l-350 110q-24 7 -39 27.5t-15 45.5 v29q-3 26 13 38.5t37 6.5l132 -40q11 -3 20 5t6 20v0q-4 22 -5 37q0 19 4 47q6 36 25.5 72t49.5 66t66 49t73 25q21 3 41 3q53 0 100 -19t84 -55l5 -6q9 -9 22 -9t22 10l110 127q7 9 7 21v1q0 7 -2 12q-6 16 -22 20l-394 86q-18 4 -36 1q-26 -5 -44 -24l-322 -346 q-30 -33 -46 -75t-16 -87v-14q0 -46 26.5 -83t69.5 -51l378 -129q22 -7 43.5 -1t36.5 23l41 51q2 1 16 20zM852 528q-8 -10 -6 -22q5 -24 5 -48v-4q0 -4 2.5 -8t7 -5.5t9 -0.5t7.5 5l48 58q9 11 6 26v0q-4 17 -14 36q-9 14 -10 23.5t0 18.5q1 6 4 18l2 9q3 14 -3 24t-21 12 q-11 2 -20 -4q-7 -6 -17 -20q-7 -12 -9 -33.5t3 -40.5l9 -27q3 -9 -3 -17z" />
	</g>
</svg>