<svg xmlns="http://www.w3.org/2000/svg" viewBox="0 0 1000 1000">
	<g transform="scale(1,-1) translate(0, -1000)">
		<path d="M199 749l184 184v-591l-184 186h-147v221h147zM549 638q0 48 -25.5 87.5t-66.5 61.5v-298q41 22 66.5 61.5t25.5 87.5zM609 498q15 26 40.5 42t54.5 18q10 40 10 80q0 77 -33 145.5t-92 114.5t-132 64v-76q80 -25 132 -93t52 -155t-52 -155t-132 -93v-76q29 7 57 19z M906 43h-385q-17 0 -31 8t-22.5 22.5t-8.5 31t8 30.5l193 334q8 14 22.5 22.5t31 8.5t31 -8.5t22.5 -22.5l193 -334q8 -14 8 -30.5t-8.5 -31t-22.5 -22.5t-31 -8zM755 145q-1 10 -8.5 17.5t-18.5 7.5h-29q-11 0 -18.5 -7.5t-8.5 -17.5v-26q1 -11 8.5 -18.5t18.5 -7.5h29 q11 0 18.5 7.5t8.5 18.5v26zM757 369q0 11 -8.5 18.5t-19.5 7.5h-31q-11 0 -19.5 -7.5t-8.5 -18.5l9 -145q0 -10 7 -17.5t17 -7.5h20q11 0 18 7.5t7 17.5z" />
	</g>
</svg>