<svg xmlns="http://www.w3.org/2000/svg" viewBox="0 0 1000 1000">
	<g transform="scale(1,-1) translate(0, -1000)">
		<path d="M958 896h-62v61q0 17 -12 29t-29 12h-87q-17 0 -29 -12t-12 -29v-61h-62q-17 0 -29 -12t-12 -29v-4q-81 34 -169 34q-116 0 -217 -59q-97 -57 -154 -154q-58 -100 -58 -216.5t58 -216.5q57 -98 154 -155q101 -58 217.5 -58t216.5 58q97 57 154 155q59 100 59 216 q0 88 -34 168h4q17 0 29 12t12 29v62h62q17 0 29 12t12 29v88q0 17 -12 29t-29 12zM644 652q29 0 49.5 -20.5t20.5 -49t-20.5 -49t-49.5 -20.5t-49.5 20.5t-20.5 49t20.5 49t49.5 20.5zM267 652q29 0 49.5 -20.5t20.5 -49t-20.5 -49t-49.5 -20.5t-49.5 20.5t-20.5 49 t20.5 49t49.5 20.5zM740 397q-10 -70 -50.5 -126.5t-102 -88.5t-132 -32t-132 32t-102 88.5t-50.5 126.5q-2 16 8.5 27.5t26.5 11.5h499q16 0 26.5 -11.5t8.5 -27.5zM958 767h-103v-103h-87v103h-103v88h103v102h87v-102h103v-88z" />
	</g>
</svg>