<svg xmlns="http://www.w3.org/2000/svg" viewBox="0 0 1000 1000">
	<g transform="scale(1,-1) translate(0, -1000)">
		<path d="M323 184q11 18 25 40q-22 35 -55 85q-3 4 -7 7q-1 1 -0.5 2t1.5 2q32 15 51 46q-15 32 -15 68q0 29 10 56q-22 30 -57.5 41.5t-71 0t-57 -41.5t-21.5 -67q0 -33 19 -61t49 -42q1 -1 1 -2t-1 -2q-4 -3 -6 -7q-44 -65 -66 -102q-9 -15 -9 -25q0 -21 37.5 -36t89.5 -15 q34 0 68 8q1 20 15 45zM646 166q-28 48 -81 126q-3 5 -8 9q-1 1 -1 2.5t2 2.5q37 18 60.5 52.5t23.5 75.5q0 38 -19.5 70.5t-52 51.5t-71 19t-71 -19t-51.5 -51.5t-19 -70.5q0 -41 23.5 -75.5t60.5 -52.5q2 0 2 -1.5t-1 -2.5q-5 -5 -9 -10q-53 -79 -80 -126q-11 -19 -11 -31 q0 -17 21 -31.5t57 -23t79 -8.5t79 8.5t57 23t21 31.5q0 12 -11 31zM852 838h-36v-70q0 -29 -20.5 -49.5t-49.5 -20.5h-398v-8q1 -12 10 -20t21 -8h328l69 -68q4 -5 9.5 -2.5t5.5 8.5l-4 62h65q13 0 22.5 9t9.5 23v112q0 13 -9.5 22.5t-22.5 9.5zM746 901h-599q-13 0 -22 -9 t-9 -22v-102q0 -12 9 -21.5t22 -9.5h66l-13 -83q-1 -6 4.5 -8.5t9.5 1.5l92 90h440q13 0 22 9t9 22v102q0 13 -9 22t-22 9zM878 207q-23 39 -65 102q-3 4 -7 7q-1 1 -1 2t1 2q30 14 49 42t19 61q0 37 -22 67t-57 41.5t-70.5 0t-56.5 -41.5q9 -27 9 -56q0 -36 -15 -68 q19 -30 51 -46q1 -1 1.5 -2t-0.5 -2q-4 -3 -7 -7q-34 -51 -55 -85q14 -22 25 -40q14 -25 15 -45q34 -8 68 -8q52 0 89.5 15t37.5 36q0 10 -9 25z" />
	</g>
</svg>