<svg xmlns="http://www.w3.org/2000/svg" viewBox="0 0 1000 1000">
	<g transform="scale(1,-1) translate(0, -1000)">
		<path d="M501 70q-117 0 -218 59q-97 57 -154 154q-59 101 -59 217.5t59 216.5q57 97 154 154q100 59 216.5 59t217.5 -59q97 -57 154 -154q59 -101 59 -217.5t-59 -216.5q-57 -97 -154 -154q-100 -59 -216 -59zM355 218q90 -47 195 -31q62 9 119 48t96 96t48 119q16 105 -31 195 q-8 14 -23.5 16.5t-26.5 -8.5l-385 -385q-11 -11 -8.5 -26.5t16.5 -23.5zM450 813q-62 -9 -119 -48t-96 -96t-48 -119q-16 -104 31 -195q8 -14 23.5 -16.5t26.5 9.5l384 384q12 11 9.5 26.5t-16.5 23.5q-91 47 -195 31z" />
	</g>
</svg>