<svg xmlns="http://www.w3.org/2000/svg" viewBox="0 0 1000 1000">
	<g transform="scale(1,-1) translate(0, -1000)">
		<path d="M958 896h-62v61q0 17 -12 29t-29 12h-87q-17 0 -29 -12t-12 -29v-61h-62q-16 0 -27.5 -10.5t-13.5 -25.5h-411q-49 0 -90 -24.5t-65 -65.5t-24 -89v-376q0 -48 24 -89t65 -65.5t90 -24.5h133l109 -121l110 121h133q48 0 89 24.5t65.5 65.5t24.5 89v324q9 6 14.5 15.5 t5.5 19.5v62h61q17 0 29 12t12 29v88q0 17 -12 29t-29 12zM324 402q18 19 35 38q5 5 11 2.5t6 -8.5l5 -142q0 -5 -3 -8t-7 -3l-140 -4q-7 0 -9.5 6t2.5 11l35 37l-3 3q-28 34 -43 66q-23 46 -23 94.5t23 94.5q15 32 43 66l3 3l-35 37q-5 5 -2.5 11t9.5 6l140 -4q4 0 7 -3 t3 -7l-5 -142q0 -7 -6.5 -9.5t-10.5 2.5l-35 39q-38 -50 -38 -93.5t38 -92.5zM655 334l-3 -3l35 -37q5 -5 2 -11t-9 -6l-140 4q-4 0 -7 3t-3 8l5 142q0 6 6 8.5t11 -2.5l35 -38q38 49 38 92.5t-38 93.5l-35 -39q-5 -5 -11 -2.5t-6 9.5l-5 142q0 4 3 7t7 3l140 4q6 0 9 -6 t-2 -11l-35 -37l3 -3q28 -34 43 -66q23 -46 23 -94.5t-23 -94.5q-15 -32 -43 -66zM958 767h-103v-103h-87v103h-103v88h103v102h87v-102h103v-88z" />
	</g>
</svg>