<svg xmlns="http://www.w3.org/2000/svg" viewBox="0 0 1000 1000">
	<g transform="scale(1,-1) translate(0, -1000)">
		<path d="M823 615l-12 2q-107 20 -194 60q-112 52 -147 121q-10 21 -25 58q-18 40 -27 56q-15 25 -36 37q-16 10 -34 13l-11 2q-3 1 -4 0q-50 1 -102 -51t-93 -141q-42 -93 -63 -204.5t-15 -212.5q5 -98 35 -165.5t77 -84.5q1 -1 3 -2l12 -2q18 -3 36 1q23 3 46 21q15 11 46 42 q27 29 45 44q57 53 181 60q95 6 202 -14l12 -3q40 -7 78.5 11t66 56t36.5 87t-3 94.5t-41 76t-69 38.5zM370 512q-18 -92 -47 -169q-27 -74 -59 -115.5t-60 -35.5q-34 6 -54 57t-22 131q-2 83 15 175t49 168q31 74 68.5 114.5t70.5 33.5q28 -5 43 -55t14 -129 q-1 -82 -18 -175zM295 636q-41 -5 -70.5 -29.5t-36 -60t12 -69t54.5 -52.5q17 -9 32 -2.5t20 24.5q10 36 17 74t11 75q2 19 -10 30.5t-30 9.5zM694 214q-31 -9 -62 -5l-52 7q-8 0 -12 -7l-27 -49q-4 -7 -10 -14l-48 -63q-3 -5 -2 -11t7 -9l15 -9q35 -19 74 -17l17 1 q25 2 45.5 17t28.5 39l38 102q2 6 -1.5 12t-10.5 6z" />
	</g>
</svg>