<svg xmlns="http://www.w3.org/2000/svg" viewBox="0 0 1000 1000">
	<g transform="scale(1,-1) translate(0, -1000)">
		<path d="M47 957h553q10 0 16.5 -7t6.5 -16v-29q0 -9 -6.5 -16t-16.5 -7h-553q-10 0 -17 7t-7 16v29q0 9 7 16t17 7zM47 818h553q10 0 16.5 -7t6.5 -17v-28q0 -10 -6.5 -16.5t-16.5 -6.5h-553q-10 0 -17 6.5t-7 16.5v28q0 10 7 17t17 7zM47 678h340q9 0 16 -6.5t7 -16.5v-28 q0 -10 -7 -17t-16 -7h-340q-10 0 -17 7t-7 17v28q0 10 7 16.5t17 6.5zM688 625q-82 0 -152 -42q-68 -40 -108 -108q-41 -70 -41 -152t41 -152q40 -68 108 -108q70 -41 152 -41t152 41q68 40 108 108q41 70 41 152t-41 152q-40 68 -108 108q-70 42 -152 42zM688 549 q56 0 104 -25.5t80 -69.5t40 -100h-49q-8 0 -17.5 5t-14.5 12l-60 80q-5 7 -12.5 7t-12.5 -7l-116 -155q-5 -7 -12.5 -7t-12.5 7l-32 42q-5 7 -14.5 11.5t-17.5 4.5h-77q8 56 39.5 100t80 69.5t104.5 25.5zM688 97q-56 0 -104 25.5t-80 70t-40 99.5h49q8 0 17.5 -5t14.5 -12 l60 -80q5 -7 12.5 -7t12.5 7l116 156q5 6 12.5 6t12.5 -6l32 -43q5 -7 14.5 -11.5t17.5 -4.5h77q-8 -55 -40 -99.5t-80 -70t-104 -25.5zM132 42q13 -1 22 8.5t9 21.5l1 441q0 5 -3 10t-9 7t-11.5 0.5t-9.5 -6.5l-110 -134q-8 -9 -3 -19.5t17 -10.5h67v-288q0 -12 9 -21 t21 -9zM248 531q-13 0 -22 -9t-9 -21l-1 -441q0 -6 3.5 -10.5t9 -6.5t11.5 -0.5t9 5.5l111 135q7 9 2 19.5t-17 10.5h-66v288q0 12 -9 21t-22 9z" />
	</g>
</svg>