<svg xmlns="http://www.w3.org/2000/svg" viewBox="0 0 1000 1000">
	<g transform="scale(1,-1) translate(0, -1000)">
		<path d="M648 673q-87 0 -162 -44q-72 -43 -114 -115q-44 -75 -44 -161.5t44 -161.5q42 -72 114 -115q75 -43 162 -43t161 43q73 43 115 115q44 75 44 161.5t-44 161.5q-42 72 -115 115q-74 44 -161 44zM744 519q19 0 32 -23.5t13 -56.5t-13 -56.5t-31.5 -23.5t-31.5 23.5 t-13 56.5t13 56.5t31 23.5zM551 519q19 0 32 -23.5t13 -56.5t-13 -56.5t-31.5 -23.5t-31.5 23.5t-13 56.5t13 56.5t31 23.5zM824 204q-18 -31 -37 -25q-8 3 -10 11.5t5 21.5q-23 32 -58 50t-76 18t-76.5 -18.5t-59.5 -50.5q7 -13 5 -21t-10 -11q-19 -6 -37 25 q-9 15 -8.5 25.5t9.5 13.5q11 4 25 -10q28 45 64 70q41 28 88 28q49 0 90 -25q38 -24 65 -68q11 8 20 5t9.5 -13.5t-8.5 -25.5zM47 957h553q10 0 16.5 -7t6.5 -16v-29q0 -9 -6.5 -16t-16.5 -7h-553q-10 0 -17 7t-7 16v29q0 9 7 16t17 7zM47 818h553q10 0 16.5 -7t6.5 -17 v-28q0 -10 -6.5 -16.5t-16.5 -6.5h-553q-10 0 -17 6.5t-7 16.5v28q0 10 7 17t17 7zM47 678h246q10 0 16.5 -6.5t6.5 -16.5v-28q0 -10 -6.5 -17t-16.5 -7h-246q-10 0 -17 7t-7 17v28q0 10 7 16.5t17 6.5zM47 539h153q10 0 16.5 -7t6.5 -16v-29q0 -9 -6.5 -16t-16.5 -7h-153 q-10 0 -17 7t-7 16v29q0 9 7 16t17 7z" />
	</g>
</svg>