<svg xmlns="http://www.w3.org/2000/svg" viewBox="0 0 1000 1000">
	<g transform="scale(1,-1) translate(0, -1000)">
		<path d="M47 957h553q10 0 16.5 -7t6.5 -16v-29q0 -9 -6.5 -16t-16.5 -7h-553q-10 0 -17 7t-7 16v29q0 9 7 16t17 7zM47 818h553q10 0 16.5 -7t6.5 -17v-28q0 -10 -6.5 -16.5t-16.5 -6.5h-553q-10 0 -17 6.5t-7 16.5v28q0 10 7 17t17 7zM47 678h359q10 0 17 -6.5t7 -16.5v-28 q0 -10 -7 -17t-17 -7h-359q-10 0 -17 7t-7 17v28q0 10 7 16.5t17 6.5zM47 539h153q10 0 16.5 -7t6.5 -16v-29q0 -9 -6.5 -16t-16.5 -7h-153q-10 0 -17 7t-7 16v29q0 9 7 16t17 7zM625 153l-151 -79q-9 -5 -19.5 -4t-19 7t-12.5 16t-3 20l29 168q4 19 -10 32l-122 119 q-8 7 -10.5 17.5t1 20.5t11.5 17t18 8l169 25q19 2 27 20l76 152q4 10 13 15.5t19.5 5.5t19.5 -5.5t14 -15.5l75 -152q9 -18 28 -20l168 -25q11 -1 19 -8t11 -17t0.5 -20.5t-9.5 -17.5l-122 -119q-14 -13 -10 -32l28 -168q2 -10 -2 -20t-12.5 -16t-19 -7t-20.5 4l-150 79 q-17 9 -34 0z" />
	</g>
</svg>