<svg xmlns="http://www.w3.org/2000/svg" viewBox="0 0 1000 1000">
	<g transform="scale(1,-1) translate(0, -1000)">
		<path d="M433 918v2q0 22 -15 37t-37 15t-37 -15t-15 -37v-2h-98q-4 0 -7 -2.5t-3 -6.5v-79q0 -7 5 -12t12 -5h287q7 0 12 5t5 12v79q0 4 -3 6.5t-7 2.5h-99zM778 644v-122q0 -4 3 -7t7 -3h123zM761 456q-16 0 -27.5 11.5t-11.5 27.5v139q0 4 -3 7t-7 3h-258q-15 0 -25.5 -10.5 t-10.5 -25.5v-173q-29 4 -56 15v158q0 39 27 66t65 27h220q4 0 7 2.5t3 6.5v154q0 23 -16 38.5t-38 15.5h-22q-4 0 -7 -2.5t-3 -6.5v-79q0 -31 -21.5 -52.5t-51.5 -21.5h-287q-31 0 -52 21.5t-21 52.5v79q0 4 -3 6.5t-7 2.5h-22q-22 0 -38 -15.5t-16 -38.5v-617 q0 -23 16 -39t38 -16h219q4 0 7 3t3 7v35q27 -14 56 -23v-118q0 -15 10.5 -25.5t25.5 -10.5h432q14 0 24.5 10.5t10.5 25.5v350q0 4 -3 7t-7 3h-150zM246 358q-41 45 -66 105q-26 64 -26 124q0 20 12.5 23t18.5 -16q16 -47 46 -84t70 -62q52 -33 118 -41q38 -5 77 0v75 q1 11 8.5 16t18.5 -2l164 -167q4 -5 4 -11.5t-4 -11.5l-161 -163q-8 -10 -18.5 -6.5t-11.5 16.5v70q-40 7 -78 21v-1q-102 38 -172 115zM802 143h-236l57 59h179q4 0 7 -3t3 -7v-39q0 -4 -3 -7t-7 -3zM802 245h-137l29 29q17 15 23 29h85q4 0 7 -2.5t3 -6.5v-40 q0 -4 -3 -6.5t-7 -2.5zM802 346h-94q-6 9 -15 16l-42 43h151q4 0 7 -3t3 -7v-39q0 -4 -3 -7t-7 -3z" />
	</g>
</svg>