<svg xmlns="http://www.w3.org/2000/svg" viewBox="0 0 1000 1000">
	<g transform="scale(1,-1) translate(0, -1000)">
		<path d="M860 735h-61q-8 0 -13.5 -5.5t-5.5 -13.5v-246q0 -39 -28 -67t-68 -28h-405q-8 0 -13.5 -5.5t-5.5 -13.5v-61q0 -17 11.5 -28.5t28.5 -11.5h415q25 0 43 -18l110 -110q4 -4 9.5 -5t11 1t8.5 7t3 11v554q0 17 -11.5 28.5t-28.5 11.5zM700 495v360q0 17 -11.5 28.5 t-28.5 11.5h-520q-17 0 -28.5 -11.5t-11.5 -28.5v-514q0 -6 3 -11t8.5 -7t11 -1t9.5 5l110 110q18 18 43 18h375q17 0 28.5 12t11.5 28z" />
	</g>
</svg>