<svg xmlns="http://www.w3.org/2000/svg" viewBox="0 0 1000 1000">
	<g transform="scale(1,-1) translate(0, -1000)">
		<path d="M840 150h-680q-4 0 -7 3t-3 7v680q0 4 3 7t7 3h680q4 0 7 -3t3 -7v-680q0 -4 -3 -7t-7 -3zM70 920v-840q0 -4 3 -7t7 -3h840q4 0 7 3t3 7v840q0 4 -3 7t-7 3h-840q-4 0 -7 -3t-3 -7zM274 750h52q10 0 17 -7t7 -17v-52q0 -10 -7 -17t-17 -7h-52q-10 0 -17 7t-7 17v52 q0 10 7 17t17 7zM474 750h252q10 0 17 -7t7 -17v-52q0 -10 -7 -17t-17 -7h-252q-10 0 -17 7t-7 17v52q0 10 7 17t17 7zM274 550h52q10 0 17 -7t7 -17v-52q0 -10 -7 -17t-17 -7h-52q-10 0 -17 7t-7 17v52q0 10 7 17t17 7zM474 550h252q10 0 17 -7t7 -17v-52q0 -10 -7 -17 t-17 -7h-252q-10 0 -17 7t-7 17v52q0 10 7 17t17 7zM274 350h52q10 0 17 -7t7 -17v-52q0 -10 -7 -17t-17 -7h-52q-10 0 -17 7t-7 17v52q0 10 7 17t17 7zM474 350h252q10 0 17 -7t7 -17v-52q0 -10 -7 -17t-17 -7h-252q-10 0 -17 7t-7 17v52q0 10 7 17t17 7z" />
	</g>
</svg>