<svg xmlns="http://www.w3.org/2000/svg" viewBox="0 0 1000 1000">
	<g transform="scale(1,-1) translate(0, -1000)">
		<path d="M920 900q-111 26 -210 1q-7 -2 -13 -7.5t-8 -13.5t0 -15.5t7 -13.5h1q5 -6 13 -8t16 0q72 20 154 2v-473q-100 10 -199 -18t-181 -87q-82 59 -181 87t-199 18v473q82 18 154 -2q8 -2 16 0t13 8h1q5 6 7 13.5t0 15.5t-8 13.5t-13 7.5q-99 25 -210 -1q-8 -2 -13 -8t-5 -14 v-665q0 -10 7.5 -17t17.5 -6q79 10 141 1q66 -9 127 -40t129 -89q7 -5 16 -5t16 5q68 58 129 89t127 40q62 9 141 -1q10 -1 17.5 6t7.5 17v665q0 8 -5 14t-13 8zM880 251q-101 11 -202 -24q-97 -33 -178 -103q-81 70 -178 103q-101 35 -202 24v73q100 9 188 -16.5t178 -89.5 q6 -4 14 -4t14 4q90 64 178 89.5t188 16.5v-73zM754 719l-211 213q-18 17 -43 17t-43 -17l-211 -213q-17 -18 -17 -43t17 -42l160 -161q6 -6 13 -3t7 11v83q0 5 -3 9l-87 88q-6 6 -6 15t6 16l148 149q7 7 16 7t16 -7l148 -149q6 -6 6 -15.5t-6 -15.5l-66 -66q-4 -4 -8.5 -4 t-8.5 4l-70 70q-3 3 -7 1.5t-4 -6.5v-265q0 -5 4 -6.5t7 1.5l243 244q17 17 17 42t-17 43z" />
	</g>
</svg>