<svg xmlns="http://www.w3.org/2000/svg" viewBox="0 0 1000 1000">
	<g transform="scale(1,-1) translate(0, -1000)">
		<path d="M500 930q-117 0 -217 -59q-97 -57 -154 -154q-59 -100 -59 -217t59 -217q57 -97 154 -154q100 -59 217 -59t217 59q97 57 154 154q59 100 59 217t-59 217q-57 97 -154 154q-100 59 -217 59zM500 822q79 0 148 -36t114.5 -99.5t56.5 -141.5h-69q-12 0 -25.5 6.5 t-20.5 16.5l-86 114q-7 10 -17.5 10t-17.5 -10l-166 -222q-7 -9 -17.5 -9t-17.5 9l-46 61q-7 10 -20.5 17t-24.5 7h-110q11 78 56.5 141.5t114.5 99.5t148 36zM500 178q-79 0 -148 36t-114.5 99.5t-56.5 141.5h69q12 0 25.5 -7t20.5 -16l86 -115q7 -9 17.5 -9t17.5 9 l166 222q7 10 17.5 10t17.5 -10l46 -61q7 -9 20.5 -16t24.5 -7h110q-11 -78 -56.5 -141.5t-114.5 -99.5t-148 -36z" />
	</g>
</svg>