<svg xmlns="http://www.w3.org/2000/svg" viewBox="0 0 1000 1000">
	<g transform="scale(1,-1) translate(0, -1000)">
		<path d="M891 692h-551q-6 0 -10.5 4t-5.5 10l-32 164q-2 14 -12 22.5t-24 8.5h-146q-15 0 -25.5 -10.5t-10.5 -25.5v-5q0 -15 10.5 -26t25.5 -11h102q4 0 7 -2.5t4 -6.5l102 -544q3 -19 20 -28q8 -5 18 -5h17q-22 -25 -21 -58.5t25 -56.5t57.5 -23t58 23t25.5 56.5t-22 58.5h186 q-23 -25 -21.5 -58.5t25.5 -56.5t57.5 -23t57.5 23t25 56.5t-21 58.5h17q15 0 25.5 10.5t10.5 25.5v8q0 15 -11 25.5t-26 10.5h-419q-6 0 -10.5 4t-5.5 9l-10 54q-1 8 4 14t12 5h460q13 0 22.5 8t11.5 21l33 219q3 16 -7.5 28.5t-27.5 12.5z" />
	</g>
</svg>