<svg xmlns="http://www.w3.org/2000/svg" viewBox="0 0 1000 1000">
	<g transform="scale(1,-1) translate(0, -1000)">
		<path d="M395 844h460q21 0 36 -15t15 -36v-23q0 -21 -15 -36t-36 -15h-460q-21 0 -36 15t-15 36v23q0 21 15 36t36 15zM395 563h460q21 0 36 -15t15 -37v-22q0 -22 -15 -36.5t-36 -14.5h-460q-21 0 -36 14.5t-15 36.5v22q0 22 15 36.5t36 14.5v1zM395 281h460q21 0 36 -15t15 -36 v-23q0 -21 -15 -36t-36 -15h-460q-21 0 -36 15t-15 36v23q0 21 15 36t36 15zM146 875h83q21 0 36.5 -15.5t15.5 -37.5v-82q0 -22 -15.5 -37.5t-36.5 -15.5h-83q-21 1 -36.5 16t-15.5 37v82q0 22 15.5 37.5t36.5 15.5zM146 594h83q21 0 36.5 -15.5t15.5 -37.5v-82 q0 -22 -15.5 -37.5t-36.5 -15.5h-83q-21 0 -36.5 15.5t-15.5 37.5v82q0 22 15.5 37.5t36.5 15.5zM146 313h83q21 0 36.5 -15.5t15.5 -37.5v-82q0 -22 -15.5 -37.5t-36.5 -15.5h-83q-21 0 -36.5 15.5t-15.5 37.5v82q0 22 15.5 37.5t36.5 14.5v1z" />
	</g>
</svg>