<svg xmlns="http://www.w3.org/2000/svg" viewBox="0 0 1000 1000">
	<g transform="scale(1,-1) translate(0, -1000)">
		<path d="M623 934v-29q0 -9 -6.5 -16t-16.5 -7h-553q-10 0 -17 7t-7 16v29q0 9 7 16t17 7h553q10 0 16.5 -7t6.5 -16zM600 818h-553q-10 0 -17 -7t-7 -17v-28q0 -10 7 -16.5t17 -6.5h553q10 0 16.5 6.5t6.5 16.5v28q0 10 -6.5 17t-16.5 7zM293 678h-246q-10 0 -17 -6.5t-7 -16.5 v-28q0 -10 7 -17t17 -7h246q10 0 16.5 7t6.5 17v28q0 10 -6.5 16.5t-16.5 6.5zM200 539h-153q-10 0 -17 -7t-7 -16v-28q0 -10 7 -17t17 -7h153q10 0 16.5 7t6.5 17v28q0 9 -6.5 16t-16.5 7zM970 353q0 -97 -54 -178t-143.5 -118t-185 -18t-164 87.5t-87.5 163.5t18 185 t118 144t178 54q87 0 161 -44q73 -43 115 -115q44 -75 44 -161zM738 447q0 -16 9 -29t23.5 -19t30 -3t26.5 14.5t14 27t-3 30t-19 23t-29 8.5q-21 0 -36.5 -15t-15.5 -37zM457 447q0 -16 9 -29t23.5 -19t30 -3t26.5 14.5t14 27t-3 30t-19 23t-29 8.5q-21 0 -36.5 -15 t-15.5 -37zM836 338h-372q-12 0 -19.5 -8.5t-6.5 -20.5q7 -52 37 -94t76 -66t98.5 -24t98.5 24t76 66t38 94q1 12 -7 20.5t-19 8.5z" />
	</g>
</svg>