<svg xmlns="http://www.w3.org/2000/svg" viewBox="0 0 1000 1000">
	<g transform="scale(1,-1) translate(0, -1000)">
		<path d="M441 250q-38 66 -111 173q-5 7 -11 13q-2 1 -1.5 3t2.5 3q50 25 82 71q33 48 33 104q0 53 -26 98t-71 71t-97.5 26t-97.5 -26t-71 -71t-26 -98q0 -56 33 -104q32 -46 82 -71q2 -1 2.5 -3t-1.5 -3q-7 -6 -11 -13q-76 -112 -111 -173q-16 -27 -16 -43q0 -24 29.5 -44 t79 -31.5t108 -11.5t108.5 11.5t79 31.5t29 44q0 17 -16 43zM960 250q-38 66 -111 173q-5 7 -11 13q-2 1 -1.5 3t1.5 3q51 25 83 71q33 48 33 104q0 53 -26 98t-71 71t-98 26t-97.5 -26t-70.5 -71t-26 -98q0 -56 33 -104q31 -46 82 -71q2 -1 2.5 -3t-1.5 -3q-7 -6 -12 -13 q-73 -109 -110 -173q-16 -27 -16 -43q0 -24 29 -44t79 -31.5t108.5 -11.5t108 11.5t79 31.5t29.5 44q0 17 -16 43z" />
	</g>
</svg>