<svg xmlns="http://www.w3.org/2000/svg" viewBox="0 0 1000 1000">
	<g transform="scale(1,-1) translate(0, -1000)">
		<path d="M504 906q-117 0 -217 -58q-97 -57 -154 -155q-59 -100 -59 -216.5t59 -216.5q57 -98 154 -154q100 -59 217 -59t217 59q97 56 154 154q59 100 59 216.5t-59 216.5q-57 98 -154 155q-100 58 -217 58zM634 700q24 0 42 -31.5t18 -76t-18 -76t-42.5 -31.5t-42 31.5t-17.5 76 t17.5 76t42.5 31.5zM374 700q25 0 42.5 -31.5t17.5 -76t-17.5 -76t-42 -31.5t-42.5 31.5t-18 76t18 76t42 31.5zM740 277q-24 -41 -49 -33q-12 3 -14 14.5t8 30.5q-32 42 -79.5 66.5t-102 24.5t-102.5 -25t-79 -69q8 -17 5.5 -28t-12.5 -14q-26 -8 -50 33q-13 21 -12 35 t13 18q15 4 34 -14q38 61 86 94q55 38 118 38q66 0 121 -34q50 -32 87 -92q15 11 27 7.5t13 -17.5t-12 -35z" />
	</g>
</svg>