<svg xmlns="http://www.w3.org/2000/svg" viewBox="0 0 1000 1000">
	<g transform="scale(1,-1) translate(0, -1000)">
		<path d="M888 147q-21 48 -56 123q-7 15 2 28q32 54 46 115t8 123q-8 93 -58 172q-49 77 -127 125q-79 49 -172 56q-88 7 -170 -24q-78 -29 -137.5 -88.5t-88.5 -138.5q-31 -81 -24 -170q7 -92 56 -172q48 -78 125 -127q79 -50 172 -58q62 -6 123 8t115 47q13 8 28 2l123 -56 q11 -5 21 -0.5t14.5 14.5t-0.5 21zM485 279q-11 -27 -38.5 -38.5t-55 0t-39 39t0 55t39 38.5t55 0t38.5 -38.5t0 -54.5v-1zM460 406q-20 8 -28 28t0 40l73 248q8 19 24.5 32.5t38 16t41 -5.5t32.5 -25t15.5 -38t-5.5 -41l-124 -227q-8 -19 -27.5 -27.5t-39.5 -0.5z" />
	</g>
</svg>