<svg xmlns="http://www.w3.org/2000/svg" viewBox="0 0 1000 1000">
	<g transform="scale(1,-1) translate(0, -1000)">
		<path d="M910 577v177q0 42 -21 78t-57 57t-78 21h-508q-42 0 -78 -21t-57 -57t-21 -78v-508q0 -42 21 -78t57 -57t78 -21h508q42 0 78 21t57 57t21 78v170h-117v-92q0 -32 -16 -58.5t-42.5 -42.5t-58.5 -16h-352q-32 0 -58.5 16t-42.5 42.5t-16 58.5v352q0 32 16 58.5t42.5 42.5 t58.5 16h352q32 0 58.5 -16t42.5 -42.5t16 -58.5v-99h117zM419 668q-25 12 -47 7.5t-35 -22.5t-13 -46v-214q0 -28 13 -46t35 -22.5t47 7.5l279 125q26 12 35 27.5t0 31t-35 27.5z" />
	</g>
</svg>