<svg xmlns="http://www.w3.org/2000/svg" viewBox="0 0 1000 1000">
	<g transform="scale(1,-1) translate(0, -1000)">
		<path d="M238 593v104q0 6 -5 11t-11 5h-55q-6 0 -11 -5t-5 -11v-104q0 -5 -3 -8t-8 -3h-103q-7 0 -12 -4.5t-5 -11.5v-54q0 -7 5 -12t12 -5h103q5 0 8 -3t3 -8v-103q0 -7 5 -12t12 -5h54q6 0 11 5t5 12v103q0 5 3 8t8 3h104q6 0 11 5t5 12v54q0 7 -5 11.5t-11 4.5h-104q-5 0 -8 3 t-3 8zM508 369q-96 -21 -156 -60q-70 -45 -70 -105v-14q0 -18 13 -31t31 -13h610q18 0 31 13t13 31v14q0 60 -72 106q-61 38 -158 59q-25 5 -40.5 24.5t-15.5 44.5v6q0 10 4.5 19t12.5 15q43 29 69 85q25 54 25 107q0 47 -23.5 86.5t-63.5 62.5t-87 23t-87 -23t-63.5 -62.5 t-24.5 -86.5q0 -52 25 -104q25 -55 65 -85q17 -13 17 -33v-11q0 -24 -15.5 -43.5t-39.5 -24.5z" />
	</g>
</svg>