<svg xmlns="http://www.w3.org/2000/svg" viewBox="0 0 1000 1000">
	<g transform="scale(1,-1) translate(0, -1000)">
		<path d="M500 891q-106 0 -197 -54q-89 -51 -140 -140q-54 -91 -54 -197t54 -197q51 -89 140 -140q91 -54 197 -54t197 54q89 51 140 140q54 91 54 197t-54 197q-51 89 -140 140q-91 54 -197 54zM578 262q0 -20 -14.5 -34t-35.5 -14h-56q-21 0 -35.5 14t-14.5 34v49q0 20 14.5 34 t35.5 14h56q21 0 35.5 -14t14.5 -34v-49zM566 463q-1 -20 -14 -34t-33 -14h-38q-20 0 -33 14t-14 34l-16 275q-1 19 15.5 33.5t37.5 14.5h58q21 0 37.5 -14.5t15.5 -33.5z" />
	</g>
</svg>