<svg xmlns="http://www.w3.org/2000/svg" viewBox="0 0 1000 1000">
	<g transform="scale(1,-1) translate(0, -1000)">
		<path d="M70 748v-447q0 -14 9.5 -23.5t23.5 -9.5h236q7 0 12 4.5t5 11.5v22q0 7 -5 12t-12 5h-214v381h568v-76q0 -7 4.5 -11.5t11.5 -4.5h21q7 0 12 4.5t5 11.5v120h-677zM747 780v55q0 13 -9.5 23t-23.5 10h-101v13q0 12 -6 23t-16.5 17t-22.5 6t-22.5 -6t-16.5 -17t-6 -23v-13 h-230v13q0 19 -13 32t-31.5 13t-31.5 -13t-13 -32v-13h-101q-14 0 -23.5 -10t-9.5 -23v-55h677zM973 260v0q-52 -49 -120.5 -64.5t-136.5 6.5v0q-67 22 -135.5 6.5t-120.5 -64.5v0l-78 347q52 48 120.5 63.5t135.5 -6.5v0q67 -22 136 -6.5t121 64.5l58 -260zM528 22l-25 -5 q-5 -2 -9.5 1t-5.5 8l-105 465l49 11l106 -464q1 -6 -2 -10.5t-8 -5.5z" />
	</g>
</svg>