<svg xmlns="http://www.w3.org/2000/svg" viewBox="0 0 1000 1000">
	<g transform="scale(1,-1) translate(0, -1000)">
		<path d="M323 782v0q-15 0 -26.5 11t-11.5 27v51q0 16 11.5 27t27 11t27 -11t11.5 -27v-51q0 -16 -11.5 -27t-27.5 -11zM635 782v0q-15 0 -26.5 11t-11.5 27v51q0 16 11.5 27t27 11t26.5 -11t11 -27v-51q0 -16 -11 -27t-27 -11zM564 214l28 36q9 13 23.5 21t31.5 9t33 -6t28 -20 l36 -45q2 -2 5 -2t4 2l62 75q4 5 4 11v355h-677v-457q0 -20 14 -33.5t33 -13.5h364q-6 17 -3 35t14 33zM591 537q0 6 4 10t10 4h90q5 0 9.5 -4t4.5 -10v-39q0 -6 -4.5 -10t-9.5 -4h-90q-6 0 -10 4t-4 10v39zM591 427q0 6 4 10t10 4h90q5 0 9.5 -4t4.5 -10v-39q0 -6 -4.5 -10 t-9.5 -4h-90q-6 0 -10 4t-4 10v39zM371 280q0 -6 -4.5 -10.5t-10.5 -4.5h-89q-6 0 -10.5 4.5t-4.5 10.5v39q0 6 4.5 10t10.5 4h89q6 0 10.5 -4t4.5 -10v-39zM371 388q0 -6 -4.5 -10t-10.5 -4h-89q-6 0 -10.5 4t-4.5 10v39q0 6 4.5 10t10.5 4h89q6 0 10.5 -4t4.5 -10v-39z M371 498q0 -6 -4.5 -10t-10.5 -4h-89q-6 0 -10.5 4t-4.5 10v39q0 6 4.5 10t10.5 4h89q6 0 10.5 -4t4.5 -10v-39zM540 280q0 -6 -4.5 -10.5t-10.5 -4.5h-89q-6 0 -10.5 4.5t-4.5 10.5v39q0 6 4.5 10t10.5 4h89q6 0 10.5 -4t4.5 -10v-39zM540 388q0 -6 -4.5 -10t-10.5 -4h-89 q-6 0 -10.5 4t-4.5 10v39q0 6 4.5 10t10.5 4h89q6 0 10.5 -4t4.5 -10v-39zM540 498q0 -6 -4.5 -10t-10.5 -4h-89q-6 0 -10.5 4t-4.5 10v39q0 6 4.5 10t10.5 4h89q6 0 10.5 -4t4.5 -10v-39zM742 32l-133 127q-4 4 -4.5 9t2.5 10l33 42q4 6 11 6t11 -6l84 -102q1 -1 3 -1t3 1 l150 184q5 6 12 5.5t11 -6.5l34 -51q2 -4 2 -9t-4 -9l-195 -200q-4 -4 -10 -4t-10 4zM760 848h-57v-28q0 -28 -19.5 -47.5t-47.5 -20t-48.5 20t-20.5 49.5v26h-176v-28q0 -28 -19.5 -47.5t-47.5 -20t-48.5 20t-20.5 49.5v26h-54q-24 0 -41.5 -17t-17.5 -41v-88q0 -3 2 -4.5 t4 -1.5h665q2 0 4 1.5t2 4.5v88q0 24 -17 41t-42 17z" />
	</g>
</svg>