<svg xmlns="http://www.w3.org/2000/svg" viewBox="0 0 1000 1000">
	<g transform="scale(1,-1) translate(0, -1000)">
		<path d="M850 313h-700q-10 -1 -17.5 -8t-7.5 -18v-137q0 -10 7.5 -17.5t17.5 -7.5h700q10 0 17.5 7.5t7.5 17.5v137q0 11 -7.5 18.5t-17.5 7.5zM281 182q0 -11 -7.5 -18.5t-17.5 -7.5h-74q-11 0 -18.5 7.5t-7.5 18.5v74q0 10 7.5 17.5t18.5 7.5h74q10 0 17.5 -7.5t7.5 -17.5v-74z M166 875h105q11 0 18.5 -7.5t7.5 -17.5v-43q0 -11 -7.5 -18.5t-18.5 -7.5h-105q-11 0 -18 7.5t-7 18.5v43q0 10 7 17.5t18 7.5zM354 875h105q11 0 18 -7.5t7 -17.5v-43q0 -11 -7 -18.5t-18 -7.5h-105q-11 0 -18.5 7.5t-7.5 18.5v43q0 10 7.5 17.5t18.5 7.5zM541 875h105 q11 0 18.5 -7.5t7.5 -17.5v-43q0 -11 -7.5 -18.5t-18.5 -7.5h-105q-11 0 -18 7.5t-7 18.5v43q0 10 7 17.5t18 7.5zM729 875h105q11 0 18 -7.5t7 -17.5v-43q0 -11 -7 -18.5t-18 -7.5h-105q-11 0 -18.5 7.5t-7.5 18.5v43q0 10 7.5 17.5t18.5 7.5zM166 688h105q11 0 18.5 -7.5 t7.5 -18.5v-43q0 -10 -7.5 -17.5t-18.5 -7.5h-105q-11 0 -18 7.5t-7 17.5v43q0 11 7 18.5t18 7.5zM354 688h105q11 0 18 -7.5t7 -18.5v-43q0 -10 -7 -17.5t-18 -7.5h-105q-11 0 -18.5 7.5t-7.5 17.5v43q0 11 7.5 18.5t18.5 7.5zM541 688h105q11 0 18.5 -7.5t7.5 -18.5v-43 q0 -10 -7.5 -17.5t-18.5 -7.5h-105q-11 0 -18 7.5t-7 17.5v43q0 11 7 18.5t18 7.5zM166 500h105q11 0 18.5 -7.5t7.5 -17.5v-43q0 -11 -7.5 -18.5t-18.5 -7.5h-105q-11 0 -18 7.5t-7 18.5v43q0 10 7 17.5t18 7.5zM354 500h105q11 0 18 -7.5t7 -17.5v-43q0 -11 -7 -18.5 t-18 -7.5h-105q-11 0 -18.5 7.5t-7.5 18.5v43q0 10 7.5 17.5t18.5 7.5zM541 500h105q11 0 18.5 -7.5t7.5 -17.5v-43q0 -11 -7.5 -18.5t-18.5 -7.5h-105q-11 0 -18 7.5t-7 18.5v43q0 10 7 17.5t18 7.5zM729 688h105q11 0 18 -7.5t7 -18.5v-43q0 -10 -7 -17.5t-18 -7.5h-105 q-11 0 -18.5 7.5t-7.5 17.5v43q0 11 7.5 18.5t18.5 7.5z" />
	</g>
</svg>