<svg xmlns="http://www.w3.org/2000/svg" viewBox="0 0 1000 1000">
	<g transform="scale(1,-1) translate(0, -1000)">
		<path d="M900 647q-36 105 -118 178q-79 72 -183 99q-106 27 -213 -0.5t-188 -102.5q-78 -73 -113 -174q-36 -104 -17.5 -213t86.5 -195q67 -84 164 -128q101 -44 211 -35t202 70q89 59 140 153q53 96 53 207q0 72 -24 141zM392 347h209q-30 -94 -93 -169q-5 -6 -12 -6t-12 6 q-62 75 -92 169zM376 409q-18 97 0 193h240q18 -96 0 -193h-240zM164 409q-28 97 0 193h149q-16 -96 0 -193h-149zM508 832q62 -75 92 -168h-208q30 93 92 168q5 5 12 5t12 -5zM679 602h146q28 -96 0 -193h-146q8 47 8 96t-8 97zM800 664h-135q-24 84 -72 157q-3 5 0 9.5 t8 2.5q65 -21 116.5 -65t82.5 -104zM400 823q-48 -74 -73 -159h-138q31 61 84 105.5t119 64.5q5 2 8 -2.5t0 -8.5zM189 347h138q24 -85 72 -158q3 -5 -0.5 -9t-8.5 -3q-65 21 -117.5 65t-83.5 105zM594 190q48 73 71 157h135q-31 -60 -82 -103.5t-115 -64.5q-5 -2 -8.5 2.5 t-0.5 8.5z" />
	</g>
</svg>