<svg xmlns="http://www.w3.org/2000/svg" viewBox="0 0 1000 1000">
	<g transform="scale(1,-1) translate(0, -1000)">
		<path d="M500 917q-113 0 -210 -57q-95 -55 -150 -150q-57 -97 -57 -210t57 -210q55 -95 150 -150q97 -57 210 -57t210 57q95 55 150 150q57 97 57 210t-57 210q-55 95 -150 150q-97 57 -210 57zM765 561l-284 -254q-12 -8 -30 -8t-30 8l-202 176q-8 9 -5.5 23.5t11.5 23.5l53 54 q12 11 26.5 13.5t25.5 -7.5l5 -4l94 -112q2 -4 6 -6q8 -5 17.5 -4t16.5 8l186 203q14 13 27.5 11.5t26.5 -15.5l53 -59q10 -10 11.5 -26t-8.5 -25z" />
	</g>
</svg>