<svg xmlns="http://www.w3.org/2000/svg" viewBox="0 0 1000 1000">
	<g transform="scale(1,-1) translate(0, -1000)">
		<path d="M830 150h-660q-8 0 -14 6t-6 14v660q0 8 6 14t14 6h660q8 0 14 -6t6 -14v-660q0 -8 -6 -14t-14 -6zM70 910v-820q0 -8 6 -14t14 -6h820q8 0 14 6t6 14v820q0 8 -6 14t-14 6h-820q-8 0 -14 -6t-6 -14zM270 750h61q8 0 13.5 -6t5.5 -14v-61q0 -8 -5.5 -13.5t-13.5 -5.5h-61 q-8 0 -14 5.5t-6 13.5v61q0 8 6 14t14 6zM470 750h260q8 0 14 -6t6 -14v-61q0 -8 -6 -13.5t-14 -5.5h-260q-9 0 -14.5 5.5t-5.5 13.5v61q0 8 5.5 14t14.5 6zM270 550h61q8 0 13.5 -5.5t5.5 -14.5v-60q0 -9 -5.5 -14.5t-13.5 -5.5h-61q-8 0 -14 5.5t-6 14.5v60q0 9 6 14.5 t14 5.5zM470 550h260q8 0 14 -5.5t6 -14.5v-60q0 -9 -6 -14.5t-14 -5.5h-260q-9 0 -14.5 5.5t-5.5 14.5v60q0 9 5.5 14.5t14.5 5.5zM270 350h61q8 0 13.5 -5.5t5.5 -13.5v-61q0 -8 -5.5 -14t-13.5 -6h-61q-8 0 -14 6t-6 14v61q0 8 6 13.5t14 5.5zM470 350h260q8 0 14 -5.5 t6 -13.5v-61q0 -8 -6 -14t-14 -6h-260q-9 0 -14.5 6t-5.5 14v61q0 8 5.5 13.5t14.5 5.5z" />
	</g>
</svg>