<svg xmlns="http://www.w3.org/2000/svg" viewBox="0 0 1000 1000">
	<g transform="scale(1,-1) translate(0, -1000)">
		<path d="M850 875h-700q-10 0 -17.5 -7.5t-7.5 -17.5v-137q0 -11 7.5 -18t17.5 -7h700q10 0 17.5 7t7.5 18v137q0 10 -7.5 17.5t-17.5 7.5zM281 744q0 -10 -7.5 -17.5t-17.5 -7.5h-74q-11 0 -18.5 7.5t-7.5 17.5v74q0 11 7.5 18.5t18.5 7.5h74q10 0 17.5 -7.5t7.5 -18.5v-74z M850 594h-700q-10 0 -17.5 -7.5t-7.5 -18.5v-136q0 -11 7.5 -18.5t17.5 -7.5h700q10 0 17.5 7.5t7.5 18.5v136q0 11 -7.5 18.5t-17.5 7.5zM281 463q0 -11 -7.5 -18t-17.5 -8h-74q-11 1 -18.5 8t-7.5 18v74q0 11 7.5 18.5t18.5 7.5h74q10 0 17.5 -7.5t7.5 -18.5v-74zM850 313 h-700q-10 -1 -17.5 -8t-7.5 -18v-137q0 -10 7.5 -17.5t17.5 -7.5h700q10 0 17.5 7.5t7.5 17.5v137q0 11 -7.5 18.5t-17.5 7.5zM281 182q0 -11 -7.5 -18.5t-17.5 -7.5h-74q-11 0 -18.5 7.5t-7.5 18.5v74q0 10 7.5 17.5t18.5 7.5h74q10 0 17.5 -7.5t7.5 -17.5v-74z" />
	</g>
</svg>