<svg xmlns="http://www.w3.org/2000/svg" viewBox="0 0 1000 1000">
	<g transform="scale(1,-1) translate(0, -1000)">
		<path d="M869 758q15 19 18 36q2 15 -3 19.5t-19 2.5q-17 -4 -35 -18l-134 -106q-28 -21 -47 -32q-14 -8 -21 -10l-4 -1l-5 -2q-5 -4 -7 -10q-3 -8 1 -20l4 -14l-37 -36q3 73 8 134q5 64 8 77q5 14 -7 40q-10 22 -27 41.5t-27 19.5t-27 -19.5t-28 -41.5q-12 -26 -7 -40 q4 -13 9 -77q4 -62 7 -135l-97 97q1 7 10 15q6 5 7 9.5t-1 10t-6 8.5q-7 6 -48 48l-12 11q-8 9 -18 2q-7 -5 -16 -20l-11 12q-12 11 -28.5 11t-28.5 -11v0q-12 -12 -12 -28.5t12 -28.5l10 -10l-17 -13q-31 -21 -66 -36q-8 -3 -26.5 -4t-23.5 -6q-9 -8 0 -32q23 -57 69 -104 q27 -27 62 -44q27 -13 55 -18q19 -4 28 -4q12 1 14 13q5 17 5 44q0 5 -3 8q-6 6 -4.5 21t8 27.5t23.5 23.5l104 -104l-238 -238q-12 -11 -12 -28t12 -28v0q12 -12 28.5 -12t28.5 12l191 191q2 -11 4 -25v-1q3 -48 -14 -48h-24q-9 0 -15 -6.5t-6 -16.5t6 -16.5t15 -6.5h13 q15 0 21.5 -4t8.5 -13q1 -6 1 -17v-50q0 -15 11 -25.5t25 -10.5h1q15 0 25 10.5t10 25.5v55q0 18 11 24q6 4 21 4h14q8 0 14.5 7t6.5 16.5t-6 16.5t-15 7h-25q-16 0 -14 48v0q3 14 4 26l191 -191q12 -12 28.5 -12t28.5 12v0q11 11 11 28t-11 28l-238 238l82 82l15 -5 q12 -3 20 0q6 2 10 7l2 5l1 4q2 7 10 21q12 18 33 47q34 48 92 118z" />
	</g>
</svg>