<svg xmlns="http://www.w3.org/2000/svg" viewBox="0 0 1000 1000">
	<g transform="scale(1,-1) translate(0, -1000)">
		<path d="M499 980q-130 0 -242 -65q-108 -64 -172 -172q-65 -112 -65 -242t65 -242q64 -108 172 -172q112 -65 242 -65t242 65q108 64 172 172q65 112 65 242t-65 242q-64 108 -172 172q-112 65 -242 65zM116 501q0 104 52 193q51 87 138 138q89 52 193 52q65 0 125 -21t110 -60 l-537 -537q-39 50 -60 110t-21 125zM499 118q-65 0 -125 21t-110 60l537 537q39 -50 60 -110t21 -125q0 -104 -52 -193q-51 -87 -138 -138q-89 -52 -193 -52z" />
	</g>
</svg>