<svg xmlns="http://www.w3.org/2000/svg" viewBox="0 0 1000 1000">
	<g transform="scale(1,-1) translate(0, -1000)">
		<path d="M499 730q57 0 104.5 -28t75.5 -76t28 -104q0 -39 -15 -76l122 -122q97 81 142 198q-36 91 -104 162t-158 110q-93 40 -195 40q-86 0 -166 -29l90 -90q38 15 76 15zM83 843l95 -94l19 -20q-52 -40 -91.5 -93t-63.5 -114q36 -91 104.5 -162t157.5 -110q93 -40 195 -40 q95 0 183 35l139 -139l53 53l-738 737zM313 613l65 -64q-4 -15 -4 -27q0 -34 17 -62.5t45.5 -45.5t62.5 -17q14 0 27 3l65 -64q-45 -22 -92 -22q-56 0 -104 28t-76 76t-28 104q0 47 22 91zM493 646l131 -131v6q0 34 -16.5 63t-45 45.5t-62.5 16.5h-7z" />
	</g>
</svg>