<svg xmlns="http://www.w3.org/2000/svg" viewBox="0 0 1000 1000">
	<g transform="scale(1,-1) translate(0, -1000)">
		<path d="M170 190l-129 226q-21 37 -21 90t21 90l129 224q21 36 66.5 61.5t89.5 25.5h345q43 0 88.5 -25.5t66.5 -61.5l129 -224q21 -37 21 -89.5t-21 -90.5l-129 -227q-21 -37 -67 -64.5t-88 -27.5h-345q-43 0 -88.5 27.5t-67.5 65.5zM192 255h591v96h-445q2 30 32 50 q24 17 72 28q28 7 92 18l33 5q58 10 91 21q54 16 83 42q36 32 36 79q0 69 -35 107q-29 32 -83 45q-38 8 -100 8h-154q-82 0 -126 -21q-38 -18 -55 -58q-11 -29 -17 -90h112q3 30 13 44q11 17 36.5 23.5t74.5 6.5h52q74 0 106 -3q38 -5 52.5 -17.5t14.5 -40.5q0 -24 -41 -39 q-25 -9 -99.5 -23.5t-112.5 -25.5q-65 -17 -108 -42q-54 -30 -82 -73q-33 -49 -33 -118v-22z" />
	</g>
</svg>