<svg xmlns="http://www.w3.org/2000/svg" viewBox="0 0 1000 1000">
	<g transform="scale(1,-1) translate(0, -1000)">
		<path d="M776 653q-2 4 -4 11q-4 10 -9 13q-6 4 -25.5 5.5t-25.5 -25.5q-3 -16 -2 -51q1 -14 0 -19q-1 -15 -18 -21q-10 -4 -34 -5h-1q-9 -1 -34 12q-15 8 -53 30q-45 27 -67 38q-27 13 -81 54q-31 24 -91 73q-46 37 -56 43l-16 12q-19 14 -26 16q-11 3 -19 -9q44 -103 76 -200 q26 -81 42 -157q12 -60 18 -113q3 -39 3 -70l-1 -23l-91 -1q-23 0 -27.5 -7.5t3.5 -26.5q3 -5 30 -13q31 -9 69 -15q49 -6 95 -4q57 2 105 17q57 17 99 51q83 83 121 167q29 65 30 129q1 36 -8 82zM412 290q-4 102 -20 194q-19 110 -50 175l25 -23q31 -28 56 -48 q36 -28 57 -36q9 -4 36 -13q61 -21 89 -34q48 -22 55 -43l-9 -14q-26 -42 -46 -65q-34 -40 -75 -63q-53 -28 -118 -30z" />
	</g>
</svg>