<svg xmlns="http://www.w3.org/2000/svg" viewBox="0 0 1000 1000">
	<g transform="scale(1,-1) translate(0, -1000)">
		<path d="M525 765q21 18 36 39q12 17 19 35q6 13 9 26l1 10h-10q-12 -1 -26 -4q-20 -4 -38 -13q-24 -11 -45 -29l-281 -236q-20 -17 -35 -38q-12 -17 -20 -35q-6 -13 -8 -26l-2 -10h10q13 1 27 4q19 4 38 13q23 11 44 29l140 118zM667 596q21 17 36 38q12 17 20 36q5 13 8 25l2 10 h-10q-13 -1 -27 -4q-19 -4 -38 -13q-23 -11 -44 -29l-281 -235q-21 -18 -36 -39q-12 -17 -20 -35q-5 -13 -8 -26l-2 -9h10q13 0 27 3q19 5 38 13q23 11 44 29l141 118zM756 490l-140 -118l-141 -118q-21 -18 -36 -39q-12 -16 -19 -35q-6 -13 -9 -25l-1 -10h10q12 0 26 3 q20 5 38 14q24 11 45 28l281 236q38 32 55 74q9 21 10 35h-10q-13 0 -27 -3q-19 -5 -38 -13q-23 -12 -44 -29z" />
	</g>
</svg>