<svg xmlns="http://www.w3.org/2000/svg" viewBox="0 0 1000 1000">
	<g transform="scale(1,-1) translate(0, -1000)">
		<path d="M774 261q-64 -73 -155 -102q-87 -29 -180 -11q-37 7 -65 20q-52 23 -24 51q7 -4 43 -9q28 -4 62 -6q64 -4 125 18q64 24 113 72q29 32 35 73q7 46 -22 84q-17 23 -45 33.5t-49 2.5q-15 -6 -24 -20q-5 -9 -7 -19v1q6 -41 11 -82q6 -26 -5 -34q-6 -5 -24 -5h-123 q-18 0 -24 5q-11 8 -5 34l4 34q3 33 -2.5 48t-19.5 20q-8 3 -30 4t-34 3q-20 3 -37 12q-10 5 -27 21.5t-25 20.5q-12 5 -18 -6q-8 -13 -11 -52q5 -79 48 -133q14 -11 17 -21q2 -5 0 -14l-1 -5q-1 -5 -4 -10q-6 -7 -16 -5q-14 3 -35 24q-50 55 -69.5 133t-2.5 156 q17 81 68 139.5t122 90.5q69 31 144.5 32t145.5 -29q23 -10 38.5 -24t11 -21t-26.5 -6t-43 9q-71 23 -149 6q-17 -5 -36 -17q-11 -7 -29 -22q-14 -11 -19 -15q-17 -12 -41 -21q-19 -8 -29 -15l4 2v0q-8 -5 -15 -11q-4 -4 -10 -12q6 7 -6 -6q-16 -25 -10 -54q6 -26 28 -47 q36 -27 69 -32t56 9.5t30 44.5v0q25 97 50 111v0h1q28 -16 54 -130l3 -10q2 -11 5 -15q4 -7 13 -7q12 3 27 6.5t23 4.5q11 1 32 -1q23 -2 51 -16q22 -11 42 -26l1 -1q10 -11 16 -11q11 0 14 32v-1q-4 50 -20 112q-8 32 -9 42q0 17 11 26q7 2 16.5 -6.5t23.5 -30.5 q41 -65 51 -139.5t-11 -147t-71 -129.5zM525 423q-11 137 -24 150v0q-13 -13 -24 -150q-1 -10 2.5 -16.5t11.5 -6.5h21q7 0 10.5 6.5t2.5 16.5z" />
	</g>
</svg>