<svg xmlns="http://www.w3.org/2000/svg" viewBox="0 0 1000 1000">
	<g transform="scale(1,-1) translate(0, -1000)">
		<path d="M757 861q-5 0 -14 -10q-6 -6 -18.5 -21.5t-17.5 -21.5q-9 -10 -14 -10h-138q-4 0 -20 34l-6 13q-6 12 -14 20q-5 6 -11 8l-4 2l-4 -2q-6 -2 -11 -8q-8 -8 -14 -20l-6 -13q-16 -34 -20 -34h-138q-5 0 -14 10q-5 6 -17.5 21.5t-18.5 21.5q-9 10 -14 10q-14 0 -26 -13 q-14 -14 -14 -35v-258q0 -96 33 -177q31 -76 88 -130q48 -45 115 -88q34 -21 61 -35v0v0q26 13 61 35q67 43 115 88q57 54 88 130q33 81 33 177v258q0 21 -14 35q-12 13 -26 13zM469 232q-11 6 -21 12q-26 17 -49 37q-34 29 -59 61q-31 40 -47 94q-12 42 -12 80l1 219h187 v-503zM660 342q-25 -32 -59 -61q-23 -20 -49 -37l-21 -12v503h187l1 -219q0 -38 -12 -80q-16 -54 -47 -94z" />
	</g>
</svg>