<svg xmlns="http://www.w3.org/2000/svg" viewBox="0 0 1000 1000">
	<g transform="scale(1,-1) translate(0, -1000)">
		<path d="M839 558q-6 9 -15 18q-36 11 -49 -17q-6 -13 -7 -34q-1 -18 2 -24q13 -30 13 -48q0 -33 -24 -57t-57.5 -24t-57.5 24t-24 57q0 36 15 64q13 22 38 42q15 13 49 33q24 15 36 23l-4 3q-25 19 -43 29q-32 16 -76 24q-55 11 -135 11v0q-80 0 -135 -11q-44 -8 -76 -24 q-18 -10 -43 -29l-4 -3q12 -8 36 -23q34 -20 49 -33q25 -20 38 -42q15 -28 15 -64q0 -34 -24 -57.5t-57.5 -23.5t-57.5 23.5t-24 57.5q0 18 13 48q3 6 2 24q-1 21 -7 34q-13 28 -49 17q-9 -9 -15 -18q-15 -22 -25 -49q-11 -30 -11 -56q0 -61 38 -109t98 -61t114.5 14 t80.5 82.5t11 115t-63 96.5q23 9 49 13q17 3 47 4q30 -1 47 -4q26 -4 49 -13q-49 -37 -63.5 -96.5t11.5 -115t80.5 -82.5t114.5 -13.5t98 61t38 108.5q0 26 -11 56q-10 27 -25 49z" />
	</g>
</svg>