<svg xmlns="http://www.w3.org/2000/svg" viewBox="0 0 1000 1000">
	<g transform="scale(1,-1) translate(0, -1000)">
		<path d="M845 389q18 20 25 46q6 23 5 55q-1 31 -18 67q-20 42 -55 69q-42 32 -97 33q-35 0 -67 -28q-11 -10 -24 -28q-18 -25 -25 -45q-8 -27 6 -43q6 -6 17 -4t16.5 8.5t6 3t-3 -9t-10 -10t-16.5 -7.5q-13 -3 -23 1q-13 5 -19 21q-4 11 0 29.5t16 35.5q16 23 46 49q4 3 4 7.5 t-2 8.5q-15 21 -45 37q-39 22 -87 22q-80 0 -150 -84l-2 -3q-9 -9 -18 -26q-11 -21 -15 -38q-4 -22 5 -33.5t22 -9.5q8 2 14 7q7 6 7 4q1 -9 -15 -22q-5 -4 -15 -6q-12 -2 -22 1q-12 5 -17.5 18t-2 33t13.5 38q8 14 40 47l4 5q5 5 4 12t-8 10q-11 5 -24 6q-10 1 -20 -1 l-24 -5q-19 -5 -37 -14q-26 -11 -46 -28q-26 -20 -41 -47q-19 -32 -23 -72q-2 -23 6 -50q8 -30 26 -51q36 -43 111 -55h3l5 -3q77 -47 191.5 -47t190.5 32l3 1q1 0 11 1q54 2 90 13q34 10 58 28l8 7q12 9 17 14z" />
	</g>
</svg>