<svg xmlns="http://www.w3.org/2000/svg" viewBox="0 0 1000 1000">
	<g transform="scale(1,-1) translate(0, -1000)">
		<path d="M323 473q73 22 101 52q30 33 27 92q-36 -10 -111 -43q-50 -21 -75 -30q-42 -16 -75 -23q20 23 56 48q21 15 66 43q65 40 91 62q-46 31 -72 53q-35 30 -57 61q39 2 79 -12q24 -8 69 -33l29 -15q10 20 16 47q4 16 8.5 49.5t7.5 49.5q6 27 15 47q11 -24 18 -55q5 -19 11 -57 q9 -54 16 -78q19 7 54 22q40 17 60 23q35 11 67 13q-21 -34 -56 -62q-28 -24 -74 -51q26 -22 92 -64q45 -28 66 -43q36 -26 58 -48q-38 7 -91 27q-31 12 -94 39t-88 35q-5 -54 31.5 -94t108.5 -57q-13 -18 -44 -56q-37 -43 -52 -66q-26 -38 -33 -71l-2 -9q-14 -63 -22 -95 q-14 -52 -29 -95l-13 62q-19 90 -30 135q-9 38 -41 86q-19 28 -64 82zM498 521q-12 -6 -23 -15q-6 -6 -16 -18q-9 -10 -14 -15q-15 -15 -4 -32q10 -14 32 -49l19 -29q32 36 45 57.5t12.5 36.5t-14.5 31q-9 10 -37 33z" />
	</g>
</svg>