<svg xmlns="http://www.w3.org/2000/svg" viewBox="0 0 1000 1000">
	<g transform="scale(1,-1) translate(0, -1000)">
		<path d="M464 635q27 0 46 19t19 46t-19 46.5t-46 19.5t-46.5 -19.5t-19.5 -46.5t19.5 -46t46.5 -19zM522 874q-13 2 -23 -1t-12 -10.5t1.5 -15t10.5 -12.5l8 -4q34 -15 54 -36q37 -38 37 -97q0 -35 -16.5 -67t-44.5 -51q-30 -21 -65 -21q-39 0 -69 12q-18 8 -41 25l-5 4 q-10 7 -18 6q-5 -1 -8 -5q-7 -7 -3 -24q3 -14 10 -21q32 -39 103 -67l3 -1q11 -4 16 -8q10 -7 10 -17v-266q0 -26 10 -49t19.5 -23t20 23t10.5 49v263q0 9 7.5 22.5t17.5 17.5q17 9 39 28q33 29 53 66q26 49 26 107q0 44 -21 82q-20 37 -55 61t-75 30z" />
	</g>
</svg>