<svg xmlns="http://www.w3.org/2000/svg" viewBox="0 0 1000 1000">
	<g transform="scale(1,-1) translate(0, -1000)">
		<path d="M765 900h-532q-36 0 -66.5 -18t-48.5 -48.5t-18 -66.5v-532q0 -36 18 -67t48.5 -48.5t66.5 -17.5h532q36 0 67 17.5t48.5 48.5t17.5 67v532q0 36 -18 66.5t-48.5 48.5t-66.5 18zM778 556q23 0 39.5 -16.5t16.5 -39.5t-16.5 -39.5t-39.5 -16.5h-224v-224 q0 -23 -16.5 -39.5t-39.5 -16.5t-39.5 16.5t-16.5 39.5v224h-224q-23 0 -39.5 16.5t-16.5 39.5t16.5 39.5t39.5 16.5h224v224q0 23 16.5 39.5t39.5 16.5t39.5 -16.5t16.5 -39.5v-224h224z" />
	</g>
</svg>