<svg xmlns="http://www.w3.org/2000/svg" viewBox="0 0 1000 1000">
	<g transform="scale(1,-1) translate(0, -1000)">
		<path d="M499 896q-108 -1 -200 -55q-89 -53 -141 -143q-54 -92 -53.5 -199.5t54.5 -199.5q53 -89 143 -141q92 -54 199.5 -53.5t199.5 54.5q89 53 141 143q54 92 53.5 199.5t-54.5 199.5q-53 89 -143 141q-92 54 -199 54zM632 649q26 0 45 -29t19 -70t-18.5 -70t-45 -29t-45.5 29 t-19 70t18.5 70t45.5 29zM368 648q26 0 45 -29t19 -70t-18.5 -70t-45 -29t-45.5 29t-19 70t18.5 70t45.5 29zM696 349q-23 -46 -76.5 -75.5t-119.5 -29.5t-119 29t-76 75q-7 14 1.5 27.5t23.5 13.5q8 0 15 -4.5t11 -11.5q16 -31 56 -51.5t88.5 -20t88 21t55.5 51.5 q4 7 10.5 11.5t15.5 4.5v0q15 0 23.5 -13.5t2.5 -27.5z" />
	</g>
</svg>