<svg xmlns="http://www.w3.org/2000/svg" viewBox="0 0 1000 1000">
	<g transform="scale(1,-1) translate(0, -1000)">
		<path d="M331 350q88 -54 170 -61v53q-30 -4 -60 -4q-55 0 -110 12zM657 328q48 36 56 99q-27 -19 -56 -34v-65zM500 930q-117 0 -217 -59q-97 -57 -154 -154q-59 -100 -59 -217t59 -217q57 -97 154 -154q100 -59 217 -59t217 59q97 57 154 154q59 100 59 217t-59 217 q-57 97 -154 154q-100 59 -217 59zM559 652l153 88q8 4 17 2t13.5 -10.5t2.5 -17.5t-11 -14l-68 -39q21 -11 30 -32.5t1.5 -43.5t-27 -34t-42.5 -8.5t-38.5 21.5t-15.5 41l1 5q-9 -2 -16 2t-10 12t0 15.5t10 12.5zM257 731q5 9 14 11t17 -2l153 -88q7 -5 10 -13.5t-1 -16.5 t-12.5 -11t-16.5 0v-6q0 -23 -15 -41t-38.5 -21.5t-43.5 9.5t-26.5 35.5t3 43.5t31.5 31l-67 39q-8 4 -10 13t2 17zM595 261q-34 -8 -70 -8q-71 0 -146 32q-54 24 -105 61q-27 20 -43 36l19 28v0q26 -10 60 -19q68 -18 131 -18q32 0 62 5q82 12 157 56q37 23 58 43l30 -10 q1 -9 0 -27q-1 -32 -12 -61q-14 -40 -44 -68q-37 -35 -97 -50zM589 296q24 6 46 17v69q-22 -11 -46 -19v-67zM523 288h2q21 0 41 3v65q-22 -6 -43 -10v-58z" />
	</g>
</svg>