<svg xmlns="http://www.w3.org/2000/svg" viewBox="0 0 1000 1000">
	<g transform="scale(1,-1) translate(0, -1000)">
		<path d="M507 895q-110 2 -205 -52q-92 -53 -145 -145q-54 -95 -52 -206q1 -104 55 -193q52 -87 139 -139q89 -54 194 -55q110 -2 205 52q92 53 145 145q54 95 52 206q-1 104 -55 193q-52 87 -139 139q-89 54 -194 55zM177 608q-1 8 5.5 13.5t15.5 3.5l227 -57q4 -1 6 -4t2 -7 q-3 -52 -31 -84q-33 -39 -93 -39q-65 0 -99 55q-29 46 -33 119zM500 236q-34 0 -63 16t-47 43.5t-21 61.5q-1 4 2.5 7.5t7.5 3.5h242q4 0 7.5 -3.5t2.5 -7.5q-3 -34 -21 -61.5t-47 -43.5t-63 -16zM691 434q-60 0 -93 39q-28 32 -31 84q0 4 2 7t6 4l227 57q9 2 15.5 -3.5 t5.5 -13.5q-4 -73 -33 -119q-34 -55 -99 -55z" />
	</g>
</svg>