<svg xmlns="http://www.w3.org/2000/svg" viewBox="0 0 1000 1000">
	<g transform="scale(1,-1) translate(0, -1000)">
		<path d="M500 930q-117 0 -217 -59q-97 -57 -154 -154q-59 -100 -59 -217t59 -217q57 -97 154 -154q100 -59 217 -59t217 59q97 57 154 154q59 100 59 217t-59 217q-57 97 -154 154q-100 59 -217 59zM638 668q26 0 44.5 -18.5t18.5 -44.5t-18.5 -44.5t-45 -18.5t-45 18.5 t-18.5 44.5t18.5 44.5t45.5 18.5zM358 668q26 0 44.5 -18.5t18.5 -44.5t-18.5 -44.5t-44.5 -18.5t-44.5 18.5t-18.5 44.5t18.5 44.5t44.5 18.5zM680 358q-84 -50 -182 -50t-181 50q-9 2 -15 7.5t-8 13.5t0.5 16t9.5 13t15.5 5.5t15.5 -3.5v0q17 -12 46 -24q57 -24 117 -24 t117 22q29 12 48 25v0q8 5 16.5 5t16 -5.5t10 -14t0 -17t-9.5 -14t-16 -5.5z" />
	</g>
</svg>