<svg xmlns="http://www.w3.org/2000/svg" viewBox="0 0 1000 1000">
	<g transform="scale(1,-1) translate(0, -1000)">
		<path d="M597 870h-189q-84 0 -158 -43q-71 -41 -112 -112q-43 -73 -43 -158t43 -158q41 -71 112 -113q74 -43 158 -43v0q14 0 20 -12l60 -111q5 -9 15 -9t15 9l60 111q6 12 19 12q85 0 158 43q71 42 113 113q43 73 43 158t-43 158q-42 71 -113 112q-73 43 -158 43zM282 489 q-28 0 -48 20t-20 48t20 47.5t48 19.5t48 -19.5t20 -47.5t-20 -48t-48 -20zM503 489q-21 0 -38 11.5t-24.5 30.5t-3.5 39t18.5 34.5t34.5 18.5t39 -4t30 -25t11 -37q0 -28 -19.5 -48t-47.5 -20zM724 489q-21 0 -38 11.5t-25 30.5t-4 39t18.5 34.5t34.5 18.5t39 -4t30.5 -25 t11.5 -37q0 -28 -19.5 -48t-47.5 -20z" />
	</g>
</svg>