<svg xmlns="http://www.w3.org/2000/svg" viewBox="0 0 1000 1000">
	<g transform="scale(1,-1) translate(0, -1000)">
		<path d="M839 822v8q0 8 -5.5 13.5t-13.5 5.5h-470q-8 0 -13.5 -5.5t-5.5 -13.5v-493q0 -4 -3.5 -6t-6.5 -1q-31 11 -58 11q-34 0 -62 -12.5t-43.5 -34.5t-15.5 -48t16.5 -47.5t45 -34.5t62.5 -13h1q34 0 63 16.5t46.5 45t17.5 62.5v306q0 5 4 8.5t9 3.5h356q5 0 8.5 -3.5 t3.5 -8.5v-180q0 -4 -3 -6.5t-7 -1.5q-31 12 -57 12q-35 0 -62.5 -13t-43.5 -35t-16 -47.5t16.5 -47.5t45 -34.5t62.5 -13.5h2q34 0 63 16.5t46 45t18 62.5v484zM394 671v39q0 5 4 8.5t9 3.5h356q5 0 8.5 -3.5t3.5 -8.5v-39q0 -5 -3.5 -8.5t-8.5 -3.5h-356q-5 0 -9 3.5 t-4 8.5z" />
	</g>
</svg>