<svg xmlns="http://www.w3.org/2000/svg" viewBox="0 0 1000 1000">
	<g transform="scale(1,-1) translate(0, -1000)">
		<path d="M117 839l-1 -144q0 -6 5 -10t10 -3l614 103q4 1 7 4.5t3 8.5v97q0 6 -4 10t-10 3l-613 -56q-5 -1 -8 -4.5t-3 -8.5zM684 160q4 0 8 -3l136 -71q10 -5 19 1.5t8 17.5l-26 151q-2 10 5 16l110 107q8 8 4.5 19t-14.5 12l-152 23q-10 1 -14 9l-68 138q-5 10 -16 10t-16 -10 l-68 -138q-4 -8 -14 -9l-151 -23q-12 -1 -15.5 -12t4.5 -19l110 -107q7 -6 5 -16l-25 -151q-2 -11 7 -17.5t19 -1.5l136 71q4 3 8 3zM624 600q8 16 22.5 26.5t32.5 11.5q15 1 29.5 -4.5t24.5 -16.5q5 -6 13 -4v0q4 1 6.5 4.5t2.5 7.5v99q0 6 -4.5 10t-10.5 2l-613 -118 q-5 0 -8 -4t-3 -8v-146q0 -7 5 -10.5t11 -2.5l478 129q2 1 3 3zM392 343q-14 14 -19 33.5t1 37.5t20.5 30t33.5 14l133 20q3 0 4 2l12 26q2 3 0 5.5t-5 1.5l-447 -131q-4 -1 -6.5 -4.5t-2.5 -7.5v-148q0 -6 5.5 -10t11.5 -2l279 104q3 1 3.5 3.5t-1.5 4.5z" />
	</g>
</svg>