<svg xmlns="http://www.w3.org/2000/svg" viewBox="0 0 1000 1000">
	<g transform="scale(1,-1) translate(0, -1000)">
		<path d="M500 930q-117 0 -217 -59q-97 -57 -154 -154q-59 -100 -59 -217t59 -217q57 -97 154 -154q100 -59 217 -59t217 59q97 57 154 154q59 100 59 217t-59 217q-57 97 -154 154q-100 59 -217 59zM240 741q-5 -2 -9 -2q-9 0 -15 6t-6 14q0 4 1 7l2 2q3 6 4 7q21 26 47.5 40 t57 14t58 -16.5t49.5 -47.5q1 -3 1 -6q0 -11 -9.5 -17t-19.5 -2l-9 9q-32 36 -71 36q-23 1 -44 -10.5t-37 -33.5zM273 650q0 26 18.5 44.5t44.5 18.5t44.5 -18.5t18.5 -44.5t-18.5 -44.5t-44.5 -18.5t-44.5 18.5t-18.5 44.5zM634 337v0q-11 7 -31 12q-40 10 -103 10 t-103 -10q-20 -5 -31 -12v0l-14 43l1 1q45 22 147 22t147 -22l1 -1zM615 542q-26 0 -44.5 18.5t-18.5 44.5t18.5 44.5t44.5 18.5t44.5 -18.5t18.5 -44.5t-18.5 -44.5t-44.5 -18.5zM702 718v0h-136q-9 0 -15 6.5t-6 15.5t6 15t15 6h135q9 0 15 -6.5t6 -15t-6 -15t-15 -6.5h1z " />
	</g>
</svg>