<svg xmlns="http://www.w3.org/2000/svg" viewBox="0 0 1000 1000">
	<g transform="scale(1,-1) translate(0, -1000)">
		<path d="M624 284q0 -19 13 -32.5t32 -13.5t32 13.5t13 32.5q0 24 -45 156q-45 -132 -45 -156zM500 930q-117 0 -217 -59q-97 -57 -154 -154q-59 -100 -59 -217t59 -217q57 -97 154 -154q100 -59 217 -59t217 59q97 57 154 154q59 100 59 217t-59 217q-57 97 -154 154 q-100 59 -217 59zM532 654q3 11 14 14.5t19 -4.5l3 -4q4 -6 4 -7q21 -43 60 -53q21 -6 44.5 -0.5t44.5 22.5q5 1 10 0q8 -2 12.5 -9.5t1.5 -15.5q-1 -4 -3 -7l-2 -2l-5 -5q-28 -19 -57 -25.5t-58.5 1.5t-52 31t-35.5 58v6zM242 596q-2 9 2.5 16.5t12.5 9.5q4 1 9 0l4 -2 q6 -3 7 -4q40 -27 78 -17q22 6 39.5 22.5t27.5 42.5q8 7 19.5 4t14.5 -15v-6l-1 -3q-2 -6 -2 -7q-14 -31 -36 -51t-51.5 -28t-60.5 0.5t-60 32.5q-2 3 -3 5zM669 202q-34 0 -57.5 24t-24.5 58q0 18 18 76l-24 10q-54 22 -84 22t-84 -22q-41 -17 -87 -41l-21 30q40 33 86 57 q29 14 49 21q29 9 57 9t56 -9q21 -7 49 -21l17 -9q16 48 33 94h34q20 -56 36 -106q28 -88 28 -111q0 -34 -23.5 -58t-57.5 -24z" />
	</g>
</svg>