<svg xmlns="http://www.w3.org/2000/svg" viewBox="0 0 1000 1000">
	<g transform="scale(1,-1) translate(0, -1000)">
		<path d="M581 622q12 -9 30 -9q13 -1 25 5q14 8 15 20t-10 20t-27 9t-29 -6t-14 -19t10 -20zM584 641q1 6 9 10t17 3q12 1 21 -6q6 -4 6 -9.5t-8.5 -10t-20 -3.5t-18 6t-6.5 10zM453 719q11 -8 27 -8q13 0 24 6q14 7 15 18.5t-9 19t-25 8t-26 -6.5q-14 -7 -15 -18t9 -19zM466 746 q8 4 17 4t18 -5q5 -4 4.5 -9t-8.5 -9t-18.5 -3.5t-16 4.5t-5 9t8.5 9zM473 651v0q41 -41 83 -48q4 -1 6 1t-1 4q-34 20 -50 53q-4 8 -17 13q-45 15 -67 38q-2 2 -5.5 1t-3.5 -3q3 -26 55 -59zM871 692l-239 193q-10 8 -22 9.5t-23 -3.5l-445 -207q-17 -8 -27 -23.5 t-10 -34.5l1 -257q0 -24 19 -40l221 -177q19 -15 44 -18t48 7l427 198q14 7 22 19.5t8 27.5v257q0 14 -6.5 27t-17.5 22zM734 548q1 -3 0 -6t-4 -4l-287 -135q-7 -3 -12.5 -7.5t-8.5 -10.5t-3 -12l2 -92q0 -6 -4 -11t-10 -6h-3q-6 0 -11 4.5t-5 10.5l2 96q2 12 7.5 23 t15.5 19q4 3 10 6l300 130q3 1 6 0t5 -5zM388 610q-5 3 -10.5 3t-9.5 -2t-5 -6v-1l-16 -8q-3 -2 -6.5 -1t-5.5 5q-3 5 -2 11q1 14 18.5 23t35.5 9q26 0 43 -13q12 -10 11 -22q-2 -14 -20 -23q-13 -7 -30.5 -8t-32.5 4q-2 1 -2 3.5t2 3.5l16 9h4q4 0 7 1l2 2q3 1 3.5 4.5 t-2.5 5.5zM341 755l12 -2l33 -6q9 6 18 11q31 17 75 21.5t88 -4.5q46 -9 78 -32q34 -23 44 -54.5t-4 -61t-49 -46.5q-13 -7 -26 -11q3 -10 5 -21l1 -11q1 -5 -3 -7.5t-8.5 -1.5t-6.5 5q-10 15 -21 30q-61 -6 -121 24q-5 2 -3 7t2 10q2 20 -15 34q-11 8 -26.5 12t-31.5 3 q-6 -1 -9 4q-22 38 -4 69l-14 6l-14 6q-5 2 -7 3q-4 4 -1 8.5t8 4.5zM147 589q2 3 5.5 3.5t6.5 -1.5l211 -154q5 -3 6.5 -9.5t-1.5 -12.5t-11 -8h-3q-6 0 -10 3l-202 168q-3 2 -3.5 5.5t1.5 5.5zM871 386q0 -8 -4 -15t-12 -10l-427 -199q-17 -7 -35 -5t-33 14l-221 177 q-10 8 -10 21v70l230 -185q13 -10 29 -11.5t30 4.5l453 210v-71z" />
	</g>
</svg>