<svg xmlns="http://www.w3.org/2000/svg" viewBox="0 0 1000 1000">
	<g transform="scale(1,-1) translate(0, -1000)">
		<path d="M501 627q-2 3 -5 3t-5 -3l-34 -61l-69 -14q-4 -1 -5 -4t2 -6l47 -51l-8 -70q0 -3 2.5 -5t5.5 -1l64 30l64 -30q3 -1 5.5 1t2.5 5l-8 70l47 51q3 3 2 6t-5 4l-68 14zM922 268q-8 4 -32 13q-46 19 -68 31q-38 21 -48 44q-34 82 -75 225q-24 80 -60 217l-15 56q54 35 65 78 l-25 -6q-31 -8 -62 -17q-43 -14 -78 -27q-43 -18 -111 -47q-74 -32 -107 -44q-52 -17 -106 -24q-59 -8 -147 -7l1 -5q2 -5 7 -10q6 -7 17 -13q8 -4 32 -13q47 -19 68 -31q38 -21 48 -44q34 -82 75 -225q24 -80 60 -217l15 -56q-54 -35 -65 -78l25 6q31 8 62 17q43 14 78 27 q43 18 111 47q74 32 107 44q52 17 106 24q59 8 147 7l-1 5q-2 5 -7 10q-6 7 -17 13zM651 398q-4 -57 -34 -99q-25 -36 -72 -65q-28 -18 -89 -47q-37 -17 -54 -26q4 28 -4 83q-4 33 -19 111q-17 88 -23 130q-10 72 -7 117q4 57 34 99q25 36 72 65q28 18 89 47q37 17 54 26 q-4 -28 4 -83q4 -33 19 -111q17 -88 23 -130q10 -72 7 -117z" />
	</g>
</svg>