<svg xmlns="http://www.w3.org/2000/svg" viewBox="0 0 1000 1000">
	<g transform="scale(1,-1) translate(0, -1000)">
		<path d="M500 930q-117 0 -217 -59q-97 -57 -154 -154q-59 -100 -59 -217t59 -217q57 -97 154 -154q100 -59 217 -59t217 59q97 57 154 154q59 100 59 217t-59 217q-57 97 -154 154q-100 59 -217 59zM638 668q26 0 44.5 -18.5t18.5 -44.5t-18.5 -44.5t-45 -18.5t-45 18.5 t-18.5 44.5t18.5 44.5t45.5 18.5zM358 668q26 0 44.5 -18.5t18.5 -44.5t-18.5 -44.5t-44.5 -18.5t-44.5 18.5t-18.5 44.5t18.5 44.5t44.5 18.5zM690 337h-377q-6 0 -10.5 6.5t-4.5 16t4.5 16t10.5 6.5h377q6 0 10 -6.5t4 -16t-4 -16t-10 -6.5z" />
	</g>
</svg>