<svg xmlns="http://www.w3.org/2000/svg" viewBox="0 0 1000 1000">
	<g transform="scale(1,-1) translate(0, -1000)">
		<path d="M456 583q0 27 -15 49.5t-40.5 33t-52 5.5t-45.5 -24.5t-24.5 -46t5 -51.5t33 -40.5t49.5 -15.5q37 0 63.5 26.5t26.5 63.5zM344 605h45v-44h-45v44zM500 930q-117 0 -217 -59q-97 -57 -154 -154q-59 -100 -59 -217t59 -217q57 -97 154 -154q100 -59 217 -59t217 59 q97 57 154 154q59 100 59 217t-59 217q-57 97 -154 154q-100 59 -217 59zM232 583q0 37 18 67.5t49 48.5t67.5 18t67 -18t48.5 -49t18 -67.5t-18 -67t-48.5 -48.5t-67 -18t-67.5 18t-49 49t-18 67zM614 246q-67 -25 -110.5 -26.5t-104.5 17.5q-33 11 -65.5 42t-47.5 66 q-16 39 -3.5 66.5t36.5 34.5q15 4 49 1l19 -1q12 -1 29 -7q10 -4 30 -13t29 -13q14 -5 24 -5t25 6q9 3 28 12q22 10 32 14q17 7 29 7h24q33 2 48 -2q24 -6 34 -31q12 -28 -1 -64q-12 -33 -41 -62t-63 -42zM635 449q-41 0 -75 22.5t-49.5 60t-7.5 77.5t36.5 69t68.5 37 t78 -7.5t60.5 -49.5t22.5 -75q0 -27 -10 -51.5t-29 -43.5t-44 -29t-51 -10zM635 672q-37 0 -63.5 -26t-26.5 -63t26.5 -63.5t63.5 -26.5t63 26.5t26 63.5t-26 63t-63 26zM657 561h-44v44h44v-44z" />
	</g>
</svg>