<svg xmlns="http://www.w3.org/2000/svg" viewBox="0 0 1000 1000">
	<g transform="scale(1,-1) translate(0, -1000)">
		<path d="M677 694q-8 5 -15 10q-19 11 -39 20q-28 13 -56 20q-35 10 -67 10t-67 -10q-28 -7 -56 -20q-20 -9 -39 -20l-15 -10q-12 -11 -10.5 -24.5t16.5 -20.5l134 -76q15 -8 37 -8t37 8l134 76q15 7 16.5 20.5t-10.5 24.5zM869 721l-332 166q-15 8 -37 8t-37 -8l-332 -166 q-15 -7 -26 -24.5t-11 -34.5v-324q0 -17 11 -34.5t26 -24.5l332 -166q15 -8 37 -8t37 8l332 166q15 7 26 24.5t11 34.5v324q0 17 -11 34.5t-26 24.5zM818 659l-281 -141q-15 -7 -37 -7t-37 7l-281 141q-15 8 -15 18.5t15 18.5l281 141q15 7 37 7t37 -7l281 -141 q15 -8 15 -18.5t-15 -18.5z" />
	</g>
</svg>