<svg xmlns="http://www.w3.org/2000/svg" viewBox="0 0 1000 1000">
	<g transform="scale(1,-1) translate(0, -1000)">
		<path d="M788 585v115q0 78 -39 145q-38 65 -103 103q-67 39 -145 39t-145 -39q-65 -38 -103 -103q-40 -67 -40 -145v-115q-31 0 -57.5 -15.5t-41.5 -41.5t-15 -58v-344q0 -32 15 -58t41.5 -41.5t57.5 -15.5h575q31 0 57.5 15.5t42 41.5t15.5 58v344q0 32 -15.5 58t-42 41.5 t-57.5 15.5zM328 700q0 47 23 87t63 63.5t86.5 23.5t87 -23.5t63 -63.5t22.5 -87v-115h-345v115zM549 185v-45q0 -9 -6.5 -15.5t-15.5 -6.5h-52q-9 0 -15.5 6.5t-6.5 15.5v45q0 17 22 17h52q22 0 22 -17zM681 358q0 -23 -8 -37q-7 -12 -20 -21q-9 -5 -30 -14l-31 -13 q-20 -7 -29 -15q-14 -12 -14 -32h-96l1 13q2 16 6 29q6 17 16 26q35 29 77 46l13 5q14 5 18 7q7 5 7 12v20q0 9 -11 11q-8 2 -36 2h-90q-22 0 -34 -15q-9 -12 -9 -22v-25h-90v26q0 33 5 50q8 31 34 47q32 20 94 20h82q85 0 121 -25q24 -17 24 -42v-53z" />
	</g>
</svg>