<svg xmlns="http://www.w3.org/2000/svg" viewBox="0 0 1000 1000">
	<g transform="scale(1,-1) translate(0, -1000)">
		<path d="M767 664h-534q-12 0 -21 -9t-9 -21l38 -505q1 -13 12 -21.5t30 -8.5h434q18 0 29 8.5t13 21.5l38 505q0 12 -9 21t-21 9zM642 254l-120 -88q-4 -3 -8.5 -1t-4.5 7v34q0 3 -2 5t-5 2q-61 2 -99 28q-50 34 -57 111q-1 6 4.5 8t9.5 -2q19 -23 41 -35q20 -10 46 -13 q19 -3 54 -3q4 0 6 2.5t2 5.5v34q0 5 4.5 7t8.5 -1l120 -88q3 -3 3 -7t-3 -6zM636 381q-19 23 -41 34q-20 11 -46 14q-19 2 -54 2q-4 0 -6 -2t-2 -6v-33q0 -5 -4.5 -7t-8.5 0l-120 89q-3 2 -3 6t3 7l120 88q4 3 8.5 1t4.5 -7v-34q0 -3 2 -5.5t6 -2.5q60 -1 98 -27 q50 -35 57 -111q1 -6 -4.5 -8.5t-9.5 2.5zM783 794l-179 30q-12 2 -15 15l-8 33q-4 20 -14 26q-6 3 -22 3h-90q-16 0 -23 -3q-10 -6 -13 -26l-8 -33q-2 -13 -15 -15l-179 -30q-19 -3 -31.5 -14.5t-12.5 -28.5v-28q0 -9 6.5 -15t15.5 -6h610q9 0 15.5 6t6.5 15v28 q0 17 -12.5 28.5t-31.5 14.5z" />
	</g>
</svg>