<svg xmlns="http://www.w3.org/2000/svg" viewBox="0 0 1000 1000">
	<g transform="scale(1,-1) translate(0, -1000)">
		<path d="M205 220q32 -33 72 -52q22 -11 43 -16q3 -1 3 -4v-34q0 -5 4 -8t9 -3l50 8q4 0 6.5 3t2.5 7v11q0 2 1 3t3 1q42 -4 65 19q9 7 7 19l-6 31l5 30q0 3 4 4q65 5 116 30q55 26 86 70q33 47 33 111q0 50 -14 98q0 2 1.5 4t3.5 1q54 -8 97 19q35 22 51.5 61.5t11.5 85.5 t-31 87.5t-66 65.5t-82.5 26t-78.5 -20.5t-52.5 -63.5t-9.5 -88q0 -2 -2 -3.5t-4 -0.5q-61 23 -126 23q-217 0 -217 -276q0 -25 5 -49q1 -3 -2 -5l-28 -12l-15 -7q-7 -3 -10.5 -22t-0.5 -46q4 -47 65 -108zM347 314q15 0 26 -13.5t11 -32.5t-11 -33t-26 -14t-26 14t-11 33 t11 32.5t26 13.5zM251 322q10 0 17 -13.5t7 -32.5t-7 -33t-16.5 -14t-16.5 14t-7 33t7 32.5t16 13.5z" />
	</g>
</svg>