<svg xmlns="http://www.w3.org/2000/svg" viewBox="0 0 1000 1000">
	<g transform="scale(1,-1) translate(0, -1000)">
		<path d="M880 655l-95 150q-3 5 -9 5h-422q-5 0 -8 -4.5t-1 -9.5l41 -128q2 -5 -2 -10t-10 -4l-152 39q-5 1 -7 5.5t0 9.5l55 87q3 5 0 10t-9 5h-52q-6 0 -9 -5l-81 -150q-2 -2 -2 -5v-338q0 -6 7 -9l46 -20q5 -2 9.5 1t4.5 8v333q0 5 4 8t9 2l181 -49q8 -2 8 -10v-371q0 -4 3 -7 t7 -3h42q4 0 7 3t3 7v365q0 4 3 7t7 3h350q5 0 8 -3t3 -7v-364q0 -4 2.5 -7t7.5 -3h42q4 0 7 3t3 7v444q0 3 -1 5zM349 232v214q0 7 -4 12.5t-11 6.5l-91 25q-9 3 -17 -3t-8 -16v-199q0 -6 3.5 -11t8.5 -7l91 -40q10 -5 19 1t9 17zM753 518q-2 5 -6 5h-245q-3 0 -5 -3t-1 -6 l22 -62q2 -4 6 -4h245q3 0 5 2.5t1 6.5zM541 411h27q7 0 11.5 -4.5t4.5 -10.5v-143q0 -7 -4.5 -11.5t-11.5 -4.5h-27q-7 0 -11.5 4.5t-4.5 11.5v143q0 6 4.5 10.5t11.5 4.5zM627 411h28q7 0 11 -4.5t4 -10.5v-143q0 -7 -4 -11.5t-11 -4.5h-28q-6 0 -10.5 4.5t-4.5 11.5v143 q0 6 4.5 10.5t10.5 4.5zM714 411h28q6 0 10.5 -4.5t4.5 -10.5v-143q0 -7 -4.5 -11.5t-10.5 -4.5h-28q-6 0 -10.5 4.5t-4.5 11.5v143q0 6 4.5 10.5t10.5 4.5z" />
	</g>
</svg>