<svg xmlns="http://www.w3.org/2000/svg" viewBox="0 0 1000 1000">
	<g transform="scale(1,-1) translate(0, -1000)">
		<path d="M485 97q6 -7 15 -7t15 7l190 197q6 6 6 15v382q0 9 -6 15l-190 197q-6 7 -15 7t-15 -7l-190 -197q-6 -6 -6 -15v-382q0 -9 6 -15zM505 702l67 -99q2 -3 2 -7v-192q0 -4 -2 -7l-67 -99q-2 -4 -5 -4t-5 4l-67 99q-2 3 -2 7v192q0 4 2 7l67 99q2 4 5 4t5 -4zM339 688 l149 169q3 3 7.5 1.5t4.5 -6.5v-51q0 -3 -1 -5l-114 -142q-2 -2 -4.5 -2.5t-4.5 1.5l-36 25q-2 1 -2.5 4t1.5 6zM327 637q0 4 3 5.5t7 -0.5l37 -25q3 -2 3 -6v-223q0 -3 -2 -5l-38 -33q-3 -3 -6.5 -1t-3.5 6v282z" />
	</g>
</svg>