<svg xmlns="http://www.w3.org/2000/svg" viewBox="0 0 1000 1000">
	<g transform="scale(1,-1) translate(0, -1000)">
		<path d="M390 435q-10 6 -20 13q-24 14 -46 24q-10 4 -30.5 10t-28.5 10q-6 3 -15 10l-5 3l-21 -48l7 -1q11 -2 17 -5q8 -3 26 -14t28 -15q22 -10 49 -18l23 -7zM234 512l6 12l-29 13l-6 -5q-6 -5 -11 -11.5t-10 -17.5t-6 -19q-2 -12 -1 -23l29 -13l28 64v0zM731 316q-19 8 -60 22 q-48 16 -69 27q-18 9 -47 30l-20 15q-33 22 -57 35v0l-52 -119l18 -5q22 -7 46 -13l25 -5q35 -7 54 -14q22 -8 66 -32q38 -21 57 -29q60 -25 125 -28q32 -1 52 2v1q-15 21 -37 43q-45 44 -101 70zM448 492l-27 -61l-10 4q-3 2 -7 0l-21 -47l1 -2q1 -3 3 -4l11 -4l-28 -62 l20 -9l78 177zM608 567q10 -6 20 -13q24 -14 46 -24q10 -4 30.5 -10t28.5 -10q6 -3 15 -10l5 -3l21 48l-7 1q-10 2 -16 5q-9 3 -27 14t-28 15q-35 16 -71 25v0zM764 491l-5 -13l29 -13l5 5q6 6 11.5 12t10 17t5.5 19t1 16v7l-29 13zM396 637q18 -9 47 -30l20 -15 q21 -13 41 -25l16 -10l52 119l-18 5q-22 7 -46 13l-25 5q-35 7 -54 14q-22 8 -66 32q-38 21 -57 29q-60 26 -125 28q-32 1 -52 -2v0l8 -12q11 -14 26 -28q20 -20 43 -37q29 -21 61 -36q20 -9 62 -23q47 -16 67 -27zM550 510l27 61l10 -4q3 -2 7 0l21 47l-1 3q-1 2 -3 3 l-11 4l28 62l-20 9l-78 -176z" />
	</g>
</svg>