<svg xmlns="http://www.w3.org/2000/svg" viewBox="0 0 1000 1000">
	<g transform="scale(1,-1) translate(0, -1000)">
		<path d="M573 421v1q4 40 30.5 70.5t65.5 39.5q63 15 100.5 39.5t37.5 52.5v103q0 30 -41 55.5t-111.5 40t-153.5 14.5t-153.5 -14.5t-112 -40t-41.5 -55.5v-103q0 -28 37.5 -52.5t101.5 -39.5q39 -9 65.5 -39.5t30.5 -70.5v-1q-69 -7 -124 -27t-86.5 -48.5t-31.5 -59.5 q0 -36 42 -65t114 -45t158 -16t157.5 16.5t113.5 45.5t42 64q0 31 -31.5 59.5t-86.5 48.5t-123 27zM267 705q0 22 31.5 40.5t85.5 29.5t118 11t118 -11t85.5 -29.5t31.5 -40.5t-31.5 -40.5t-85.5 -29.5t-118 -11t-118 11t-85.5 29.5t-31.5 40.5z" />
	</g>
</svg>