<svg xmlns="http://www.w3.org/2000/svg" viewBox="0 0 1000 1000">
	<g transform="scale(1,-1) translate(0, -1000)">
		<path d="M710 790q-16 15 -43 13q-25 -2 -48 -16q-47 -28 -95 -67q-73 -61 -111.5 -119.5t-34.5 -111.5q4 -47 39 -81q23 -22 79 -39q33 -10 101 -24q42 -9 57 -13q25 -7 29 -14q10 -15 -5 -24q-14 -8 -51 -14q-87 -12 -197 19q-43 12 -80 32q-21 11 -47 30l-8 5q-19 13 -42.5 13 t-35 -14.5t-10.5 -32.5q2 -21 23 -39q28 -23 62 -40q54 -26 134 -41q64 -12 130 -13q76 -2 131 10q63 15 88 48q22 29 14 60q-7 26 -33 49q-22 19 -47 28q-19 7 -71 20q-65 16 -93 26q-47 16 -58 34.5t1 53.5q10 32 31.5 59.5t59.5 55.5q22 16 65 42q39 24 50 33 q23 20 26 39.5t-10 32.5z" />
	</g>
</svg>