<svg xmlns="http://www.w3.org/2000/svg" viewBox="0 0 1000 1000">
	<g transform="scale(1,-1) translate(0, -1000)">
		<path d="M828 936q-70 -19 -108 -36t-60 -39q-19 -19 -32 -52q-8 -21 -23 -76l-5 -20q-4 -21 -8 -23q-11 74 -63 120q-48 42 -119 54q-69 11 -139 -9t-118 -67q-53 -50 -64 -120q-8 -50 15 -81q19 -25 64 -40q26 -8 87 -18.5t87 -19.5q43 -14 57 -41l20 -21q-105 -15 -163 -42 q-78 -36 -103 -104q-27 -74 5 -133q28 -53 96 -83q64 -27 139 -25q78 3 135 39q83 51 132 104q45 48 65 101q16 46 18 104q2 36 -4 112q-6 83 -5 129q1 77 18 148q14 35 37 60q19 22 48 41q18 11 57 32l19 10q-41 0 -73 -3zM351 190q-37 -25 -71 -26q-30 -1 -50.5 15 t-24.5 39q-9 52 4 86q11 30 40 50q22 16 65 32q50 20 77 15q22 -4 30 -25q13 -34 2 -75q-9 -35 -32 -68q-20 -29 -40 -43zM484 471q-23 4 -37 15q-7 7 -17 25q-7 14 -12 20q-9 10 -23 16q-20 9 -47 13q-17 3 -50 6q-52 4 -74 11q-37 12 -52 42q-26 58 -4 101q18 33 67 59 q28 14 87 33l8 3q82 4 144 -34q56 -35 80 -93.5t7 -116.5q-18 -62 -77 -100z" />
	</g>
</svg>