<svg xmlns="http://www.w3.org/2000/svg" viewBox="0 0 1000 1000">
	<g transform="scale(1,-1) translate(0, -1000)">
		<path d="M725 284q-22 0 -46 13t-36 31l-52 80q-56 88 -76 130q-29 57 -62 144q-20 53 -30 70l-2 5q-2 3 5.5 18t20.5 32v2q0 4 -2 9q-3 8 -9 20q-11 21 -33 28t-43 -4l-17 -9q-5 -14 -19 -21t-29 -3l-18 -9q-20 -11 -26.5 -33.5t4.5 -42.5q6 -12 12 -19q4 -5 7 -7l2 -1 q22 1 38.5 -1t18.5 -5l9 -12q32 -44 49 -72q28 -44 65 -113q18 -34 62 -136l40 -94q8 -20 6 -47.5t-14 -45.5l1 -4q3 -8 11 -23q11 -21 33 -28t43 4l16 9q5 14 19.5 21t29.5 3l17 9q21 11 27.5 33.5t-4.5 42.5q-14 26 -18 26v0z" />
	</g>
</svg>