<svg xmlns="http://www.w3.org/2000/svg" viewBox="0 0 1000 1000">
	<g transform="scale(1,-1) translate(0, -1000)">
		<path d="M820 437q-6 11 -18 11l-119 -1l76 96q4 5 4 12v84q0 9 -6 14.5t-14 5.5h-73q-11 0 -17 -9l-93 -148l41 195q3 11 -6 19l-93 88q-6 5 -13.5 5.5t-13.5 -5.5l-97 -85q-9 -8 -7 -20l30 -147l-94 51q-6 3 -13 2t-12 -7l-72 -81q-5 -5 -5 -12.5t5 -13.5l58 -74l-84 1 q-12 0 -18 -11l-29 -56q-2 -6 -1.5 -12t4.5 -10q42 -50 109 -86q110 -60 252.5 -60t251.5 61q66 36 107 86q4 5 4.5 11t-1.5 11zM419 263l-96 75q-3 3 -3.5 6.5t2.5 6.5l39 39q3 3 7.5 2.5t6.5 -4.5l57 -115q3 -5 -2 -9.5t-11 -0.5zM544 404l-35 -129q-2 -7 -8.5 -6.5 t-7.5 6.5l-41 245q-1 7 5 9.5t10 -2.5l72 -95q9 -12 5 -28z" />
	</g>
</svg>