<svg xmlns="http://www.w3.org/2000/svg" viewBox="0 0 1000 1000">
	<g transform="scale(1,-1) translate(0, -1000)">
		<path d="M802 814h-604q-27 0 -46 -19t-19 -46v-498q0 -27 19 -46t46 -19h604q27 0 46 19t19 46v498q0 27 -19 46t-46 19zM787 296q0 -14 -10 -24t-24 -10h-17v190q0 7 -5 12t-11 5h-19q-7 0 -12 -5t-5 -12v-190h-158v190q0 7 -5 12t-12 5h-18q-7 0 -12 -5t-5 -12v-190h-158v193 q0 7 -5 11.5t-12 4.5h-18q-7 0 -12 -4.5t-5 -11.5v-193h-19q-14 0 -24 10t-10 24v402q0 14 10 24t24 10h19v-123q0 -7 5 -12t11 -5h19q7 0 12 5t5 12v123h158v-123q0 -7 5 -12t11 -5h19q7 0 12 5t5 12v123h158v-123q0 -7 5 -12t11 -5h19q7 0 12 5t5 12v123h17q14 0 24 -10 t10 -24v-402zM386 654h18q7 0 12 -5t5 -12v-212q0 -7 -5 -12t-12 -5h-18q-7 0 -12 5t-5 12v212q0 7 5 12t12 5zM596 654h18q7 0 12 -5t5 -12v-212q0 -7 -5 -12t-12 -5h-18q-7 0 -12 5t-5 12v212q0 7 5 12t12 5z" />
	</g>
</svg>