<svg xmlns="http://www.w3.org/2000/svg" viewBox="0 0 1000 1000">
	<g transform="scale(1,-1) translate(0, -1000)">
		<path d="M870 928h-412q-24 0 -41 -17t-17 -41v-20q0 -45 -22.5 -83t-60.5 -60.5t-83 -22.5h-104q-24 0 -41 -17t-17 -41v-496q0 -24 17 -41t41 -17h496q24 0 41 17t17 41v104q0 45 22 83t60.5 60.5t83.5 22.5h19q25 0 42 17t17 41v412q0 24 -17 41t-41 17zM685 666 q-65 11 -122.5 -11.5t-89.5 -72.5q-34 -52 -28 -120h73l-140 -142l-140 142h73q7 72 42 127q34 52 88 80.5t116 27.5q65 0 128 -31zM874 487q0 -14 -9.5 -24t-23.5 -10h-173q-14 0 -24 -9.5t-10 -23.5v-265q0 -14 -9.5 -23.5t-23.5 -9.5h-446q-14 0 -23.5 9.5t-9.5 23.5v446 q0 14 9.5 23.5t23.5 9.5h172q-23 -30 -38 -64h-78q-10 0 -17.5 -7.5t-7.5 -17.5v-334q0 -10 7.5 -17.5t17.5 -7.5h334q10 0 17.5 7.5t7.5 17.5v245q0 24 17 41t41 17h171q6 0 10.5 4t4.5 10v271q0 6 -4.5 10.5t-10.5 4.5h-271q-6 0 -10 -4.5t-4 -10.5v-57q-31 -4 -61 -15 v114q0 14 10 23.5t23 9.5h355q14 0 23.5 -9.5t9.5 -23.5v-354z" />
	</g>
</svg>