<svg xmlns="http://www.w3.org/2000/svg" viewBox="0 0 1000 1000">
	<g transform="scale(1,-1) translate(0, -1000)">
		<path d="M313 667h-160q-8 0 -14 6t-6 14v160q0 8 6 14t14 6h160q8 0 14 -6t6 -14v-160q0 -8 -6 -14t-14 -6zM578 667h-160q-8 0 -14 6t-6 14v160q0 8 6 14t14 6h160q8 0 14 -6t6 -14v-160q0 -8 -6 -14t-14 -6zM843 667h-160q-8 0 -14 6t-6 14v160q0 8 6 14t14 6h160q8 0 14 -6 t6 -14v-160q0 -8 -6 -14t-14 -6zM313 402h-160q-8 0 -14 6t-6 14v160q0 8 6 14t14 6h160q8 0 14 -6t6 -14v-160q0 -8 -6 -14t-14 -6zM578 402h-160q-8 0 -14 6t-6 14v160q0 8 6 14t14 6h160q8 0 14 -6t6 -14v-160q0 -8 -6 -14t-14 -6zM843 402h-160q-8 0 -14 6t-6 14v160 q0 8 6 14t14 6h160q8 0 14 -6t6 -14v-160q0 -8 -6 -14t-14 -6zM313 137h-160q-8 0 -14 6t-6 14v160q0 8 6 14t14 6h160q8 0 14 -6t6 -14v-160q0 -8 -6 -14t-14 -6zM578 137h-160q-8 0 -14 6t-6 14v160q0 8 6 14t14 6h160q8 0 14 -6t6 -14v-160q0 -8 -6 -14t-14 -6zM843 137 h-160q-8 0 -14 6t-6 14v160q0 8 6 14t14 6h160q8 0 14 -6t6 -14v-160q0 -8 -6 -14t-14 -6z" />
	</g>
</svg>