<svg xmlns="http://www.w3.org/2000/svg" viewBox="0 0 1000 1000">
	<g transform="scale(1,-1) translate(0, -1000)">
		<path d="M753 748h-10q-9 12 -15 19l-5 4l-9 -8q-12 -10 -26 -15h-46q-9 4 -18 13q-6 6 -19 20q-15 17 -25 27q-21 21 -53 28q-16 3 -28 2h-13q-17 -2 -31 -8q-21 -7 -36 -22q-10 -10 -26 -27q-12 -14 -18 -20q-10 -9 -18 -13h-47q-14 5 -25 14l-10 9l-4 -4q-7 -7 -15 -19h-13 q-14 0 -28.5 -16t-14.5 -32v-382q0 -19 13 -32.5t29 -13.5h52q13 -12 13 -26q0 -8 -9 -14l-9 -5l-4 5q-4 5 -11 9q-9 5 -21 5q-34 0 -34 -41q0 -17 18 -28q22 -13 63 -13q13 0 33 11q10 6 18 12l79 85h139l79 -85l9 -6q10 -7 20 -11q13 -6 22 -6q41 0 63 13q18 11 18 28 q0 41 -34 41q-12 0 -21 -5q-7 -4 -11 -9l-4 -5l-9 5q-9 6 -9 14q0 14 13 26h48q18 0 31 13t13 33v384q0 15 -14 30.5t-30 15.5zM732 356q0 -15 -8 -20q-5 -3 -20 -3h-415q-11 0 -15.5 6.5t-4.5 22.5v301q0 24 21 24h414q11 0 19 -8.5t8 -20.5v-302h1zM400 614h200v-84h-200 v84zM400 464h200v-78h-200v78z" />
	</g>
</svg>