<svg xmlns="http://www.w3.org/2000/svg" viewBox="0 0 1000 1000">
	<g transform="scale(1,-1) translate(0, -1000)">
		<path d="M779 787q0 4 -2.5 7.5t-6.5 4.5l-294 62q-5 1 -8 -1l-56 -30q-6 -3 -6 -10v-238q0 -6 -5 -10l-190 -140v-221q0 -11 8.5 -19.5t20.5 -8.5h26q12 0 20 8.5t8 19.5v118q0 6 4.5 9.5t10.5 1.5l182 -43q4 -1 6.5 -4.5t2.5 -7.5v-129q0 -12 8.5 -20.5t20.5 -8.5h23 q12 0 20.5 8.5t8.5 19.5v140q0 5 4 9l94 82q5 5 12 1.5t7 -10.5v-116q0 -11 8.5 -19.5t20.5 -8.5h23q12 0 20.5 8.5t8.5 19.5v524v2zM698 554q0 -6 -4.5 -9.5t-9.5 -2.5l-188 43q-4 1 -6.5 4.5t-2.5 7.5v23q0 6 4 9.5t10 2.5l188 -39q4 -1 6.5 -4.5t2.5 -7.5v-27zM698 665 q0 -5 -4 -8.5t-10 -2.5l-188 37q-4 1 -6.5 4t-2.5 7v28q0 6 4 9.5t10 2.5l188 -38q4 -1 6.5 -4.5t2.5 -7.5v-27z" />
	</g>
</svg>