<svg xmlns="http://www.w3.org/2000/svg" viewBox="0 0 1000 1000">
	<g transform="scale(1,-1) translate(0, -1000)">
		<path d="M450 708q2 -5 4 -8l2 -1h88l2 1q2 3 4 8l36 151l1 6q-1 7 -8 12q-9 7 -27 11q-52 10 -104 0q-18 -4 -27 -11q-7 -5 -8 -12l1 -6zM500 102q79 0 146 32q64 31 102 85t38 118q0 69 -43.5 125.5t-115.5 85.5v192l17 17q18 20 20.5 32t-8 23.5t-24.5 11.5h-25l-33 -124v-192 q18 -4 36 -11q32 -14 58 -36l8 -6h-219l-19 -6q-23 -8 -42 -20q-27 -17 -42 -38q-19 -26 -19 -58q0 -72 19 -116q10 -23 20 -31q-23 11 -42 27q-31 25 -47 57.5t-16 67t16 66.5t47 57q26 22 57 35q17 7 35 12v192l-33 124h-25q-13 0 -24 -11.5t-8.5 -23.5t20.5 -32l17 -17 v-192q-71 -30 -114 -86t-43 -125q0 -64 38 -118t102 -85q67 -32 146 -32z" />
	</g>
</svg>