<svg xmlns="http://www.w3.org/2000/svg" viewBox="0 0 1000 1000">
	<g transform="scale(1,-1) translate(0, -1000)">
		<path d="M712 449q-31 -29 -50.5 -67t-25.5 -80q-2 -16 -13.5 -26t-27.5 -10h-190q-16 0 -27.5 10t-13.5 26q-6 42 -25.5 80t-50.5 67q-44 41 -67 97.5t-23 120.5q0 78 41 146q40 66 108 104q71 40 153 40t153 -40q68 -38 108 -104q41 -68 41 -146q0 -64 -23 -120.5t-67 -97.5z M614 91q6 10 0.5 21t-17.5 11h-194q-12 0 -17.5 -11t0.5 -21q19 -28 49 -43.5t64 -15.5h2q34 0 64 15.5t49 43.5zM630 193v2q0 9 -6.5 15.5t-15.5 6.5h-216q-9 0 -15.5 -6.5t-6.5 -15.5v-2q0 -9 6.5 -15.5t15.5 -6.5h216q9 0 15.5 6.5t6.5 15.5z" />
	</g>
</svg>