<svg xmlns="http://www.w3.org/2000/svg" viewBox="0 0 1000 1000">
	<g transform="scale(1,-1) translate(0, -1000)">
		<path d="M715 872q99 -57 157 -155.5t58 -216.5t-58 -216.5t-157 -156t-216 -57.5t-215 58t-156 156t-58 216t58 216t156 156t216 58q115 0 215 -58zM673 201q79 47 125.5 126.5t46.5 172.5t-46.5 172.5t-126 126t-172.5 46.5t-172.5 -46.5t-126 -126t-46.5 -172.5t46.5 -172.5 t126 -126t172.5 -46.5t173 46zM529 510l171 -102q6 -4 8 -11t-2 -13l-13 -22q-4 -6 -11 -7.5t-13 1.5l-204 121q-8 5 -8 15v231q0 7 5 12t12 5h29q8 0 13 -5t5 -12v-198q0 -10 8 -15z" />
	</g>
</svg>