<svg xmlns="http://www.w3.org/2000/svg" viewBox="0 0 1000 1000">
	<g transform="scale(1,-1) translate(0, -1000)">
		<path d="M948 751h-93q-5 0 -7 -5l-113 -279q-2 -5 -7.5 -5t-7.5 5l-113 279q-2 5 -8 5h-54v191q0 3 -2 5.5t-6 2.5h-84q-3 0 -5.5 -2.5t-2.5 -5.5v-191h-60q-4 0 -6 -4l-103 -148q-2 -3 -6 -3t-7 3l-102 148q-2 4 -6 4h-94q-5 0 -7 -4.5t0 -8.5l156 -226q3 -5 0 -9l-169 -243 q-2 -4 0 -8.5t7 -4.5h95q5 0 7 4l113 163q3 4 7 4t6 -4l114 -163q2 -4 6 -4h49v-189q0 -3 2.5 -5.5t5.5 -2.5h85q3 0 5 2.5t2 5.5v574l161 -380q2 -5 8 -5h27q5 0 7 5l207 488q2 4 -0.5 7.5t-6.5 3.5zM330 503q-3 4 0 9l115 168v-344z" />
	</g>
</svg>