<svg xmlns="http://www.w3.org/2000/svg" viewBox="0 0 1000 1000">
	<g transform="scale(1,-1) translate(0, -1000)">
		<path d="M633 387q8 -19 -2 -36.5t-28 -17.5h-490q-18 0 -28 17.5t-2 36.5q18 41 58 72.5t96.5 49.5t120.5 18t120.5 -18t96.5 -49.5t58 -72.5zM615 275h-514q-12 0 -20.5 -8.5t-8.5 -20.5v-1q0 -12 8.5 -20.5t20.5 -8.5h514q12 0 20.5 8.5t8.5 20.5v1q0 12 -8.5 20.5t-20.5 8.5z M644 123v5q0 15 -10.5 25.5t-25.5 10.5h-500q-15 0 -25.5 -10.5t-10.5 -25.5v-5q0 -23 16 -38.5t38 -15.5h464q22 0 38 15.5t16 38.5zM908 753h-263v174q0 8 -6 13.5t-14 5.5h-131q-8 0 -13.5 -5.5t-5.5 -13.5v-32q0 -8 5.5 -13.5t13.5 -5.5h80v-123h-93q-17 0 -29.5 -12 t-12.5 -29v0q0 -13 7 -23.5t19 -15.5l14 -105q73 -20 127.5 -61.5t78.5 -96.5q10 -23 7.5 -48t-15.5 -46l-5 -6q14 -12 21.5 -29t7.5 -35v-1q0 -33 -22 -57q22 -26 22 -60v-5q0 -29 -14 -54h119q16 0 27.5 10t13.5 26l77 568q12 5 18.5 15.5t6.5 23.5v0q0 17 -12 29t-29 12z M190 552h-1v0h1z" />
	</g>
</svg>