<svg xmlns="http://www.w3.org/2000/svg" viewBox="0 0 1000 1000">
	<g transform="scale(1,-1) translate(0, -1000)">
		<path d="M500 930q-117 0 -217 -59q-97 -57 -154 -154q-59 -100 -59 -217t59 -217q57 -97 154 -154q100 -59 217 -59t217 59q97 57 154 154q59 100 59 217t-59 217q-57 97 -154 154q-100 59 -217 59zM689 697q21 0 38.5 -12t25.5 -31.5t4 -40t-19 -35.5t-36 -19.5t-40.5 4t-31 26 t-11.5 38.5q0 29 20.5 49.5t49.5 20.5zM312 697q29 0 49 -20.5t20 -49.5t-20 -49.5t-49 -20.5t-49.5 20.5t-20.5 49.5t20.5 49.5t48.5 20.5h1zM784 442q-9 -70 -49.5 -126.5t-102 -89t-132.5 -32.5t-132.5 32.5t-102 89t-49.5 126.5q-2 15 8.5 27t25.5 12h500q15 0 25.5 -12 t8.5 -27z" />
	</g>
</svg>