<svg xmlns="http://www.w3.org/2000/svg" viewBox="0 0 1000 1000">
	<g transform="scale(1,-1) translate(0, -1000)">
		<path d="M884 288q-2 5 -4 15q-5 17 -9 26q-1 2 -3.5 1.5t-2.5 -2.5v-1q0 -32 -49 -59t-132 -43q-85 -16 -184 -16t-184 16q-83 16 -132 43t-49 59v1q0 2 -2.5 3t-3.5 -2q-4 -9 -9 -26q-2 -10 -4 -15q-4 -11 -14 -21q-4 -6 -6.5 -9.5t-2.5 -10.5q0 -36 55 -66.5t147 -47.5 q95 -18 205 -18t205 18q92 17 147 47.5t55 66.5q0 7 -2.5 10.5t-6.5 9.5q-10 10 -14 21zM136 378q6 -31 56 -56.5t130 -40.5q83 -15 178 -15t178 15q80 15 130 40.5t56 56.5l1 2q0 26 -8 42q-4 10 -17 23q-11 10 -15 17q-7 11 -9 26v0l-1 5q-4 39 -16 70q-20 58 -63 112 q-37 46 -91 76q-44 24 -94 34q-2 9 -2 17q-1 6 -5 9q14 7 20 19q4 8 4 17l-1 8q0 12 -19 21t-46.5 9t-46.5 -9t-19 -21l-1 -8q0 -9 4 -17q6 -12 20 -19q-4 -3 -4 -9q0 -8 -3 -16q-50 -10 -95 -34q-55 -30 -93 -76q-54 -68 -72 -141q-3 -10 -1 -21q1 -15 11 -25 q40 -43 156 -62q71 -12 142 -12q20 0 30.5 -7.5t10.5 -18t-10.5 -18t-30.5 -7.5q-89 0 -162 13t-114 36q-44 25 -45 57q-5 -11 -18.5 -24.5t-17.5 -22.5q-8 -17 -8 -43q0 -1 1 -2zM422 621q-10 -20 -27 -29q-21 -13 -42 -1q-16 9 -16 27q0 15 10.5 33t31 27t35.5 2t16 -27 q1 -17 -8 -32z" />
	</g>
</svg>