<svg xmlns="http://www.w3.org/2000/svg" viewBox="0 0 1000 1000">
	<g transform="scale(1,-1) translate(0, -1000)">
		<path d="M665 543q34 0 62.5 16.5t45.5 45t17 62.5t-17 63t-45.5 45.5t-62.5 16.5t-62.5 -16.5t-45 -45.5t-16.5 -63t16.5 -62.5t45 -45t62.5 -16.5zM333 543q34 0 62.5 16.5t45 45t16.5 62.5t-16.5 63t-45 45.5t-62.5 16.5t-63 -16.5t-45.5 -45.5t-16.5 -63t16.5 -62.5t45.5 -45 t63 -16.5zM333 459q-54 0 -119 -16q-73 -18 -118 -48q-54 -36 -54 -81v-104h582v104q0 45 -54 81q-45 30 -119 48q-65 16 -118 16zM665 459q-16 0 -40 -2q82 -59 82 -143v-104h249v104q0 45 -54 81q-45 30 -118 48q-65 16 -119 16z" />
	</g>
</svg>