<svg xmlns="http://www.w3.org/2000/svg" viewBox="0 0 1000 1000">
	<g transform="scale(1,-1) translate(0, -1000)">
		<path d="M561 875q-101 0 -188 -51q-85 -49 -135 -134q-51 -87 -51 -189h-125l162 -162l3 -5l168 167h-125q0 79 40 147q39 66 105 105q67 39 146.5 39t146.5 -40q66 -38 105 -104q39 -68 39 -147t-39 -147q-39 -66 -105 -104q-67 -40 -147 -40q-59 0 -112 22.5t-93 63.5l-59 -59 q52 -52 119 -81q69 -29 145 -29q102 0 189 51q85 49 135 134q51 87 51 189t-51 189q-50 85 -135 134q-87 51 -189 51zM520 667v-208l178 -105l30 50l-146 86v177h-62z" />
	</g>
</svg>