<svg xmlns="http://www.w3.org/2000/svg" viewBox="0 0 1000 1000">
	<g transform="scale(1,-1) translate(0, -1000)">
		<path d="M202 105q-43 0 -72.5 29t-29.5 71v592q0 28 13.5 51.5t37 37.5t51.5 14h592q28 0 51.5 -14t37 -37.5t13.5 -51.5v-592q0 -42 -29.5 -71t-72.5 -29h-592zM156 219h677v109h-509q2 35 36 58q28 19 82 33q33 8 106 19l37 6q67 12 105 24q62 19 95 48q41 37 41 91 q0 79 -40 123q-33 37 -95 51q-44 10 -115 10h-175q-72 0 -118 -14q-42 -13 -66 -39q-21 -23 -31 -61q-8 -28 -13 -80h128q4 34 15 50q13 19 42 27t85 8h60q85 0 121 -4q44 -5 60.5 -19.5t16.5 -46.5q0 -19 -22 -33q-18 -12 -58 -22q-24 -6 -82 -17q-84 -17 -128 -28 q-74 -21 -124 -49q-61 -34 -94 -83q-37 -57 -37 -135v-26z" />
	</g>
</svg>