<svg xmlns="http://www.w3.org/2000/svg" viewBox="0 0 1000 1000">
	<g transform="scale(1,-1) translate(0, -1000)">
		<path d="M765 900h-532q-36 0 -66.5 -18t-48.5 -48.5t-18 -66.5v-532q0 -36 18 -67t48.5 -48.5t66.5 -17.5h532q36 0 67 17.5t48.5 48.5t17.5 67v532q0 36 -18 66.5t-48.5 48.5t-66.5 18zM564 207q0 -19 -13 -32t-32 -13h-78q-18 0 -31 13t-13 32v78q0 18 13 31t31 13h78 q19 0 32 -13t13 -31v-78zM815 617q0 -45 -6 -74t-22.5 -48.5t-45.5 -30t-76 -17.5q-37 -5 -56.5 -8.5t-30.5 -8t-14 -10.5t-3 -16v-13h-160v17q0 37 6 62t21.5 42.5t42.5 27.5t69 16t66 10.5t36 10.5t15 16t3 26v6q0 15 -6 24.5t-21.5 15t-43 8t-66.5 2.5h-16 q-44 0 -73.5 -2.5t-45.5 -10t-22 -21t-6 -37.5v-22h-155v22q0 42 6 73.5t21 53t37.5 34t57 19.5t79 9.5t101.5 2.5h16q84 0 140.5 -6.5t90 -24t47.5 -49.5t14 -82v-17z" />
	</g>
</svg>