<svg xmlns="http://www.w3.org/2000/svg" viewBox="0 0 1000 1000">
	<g transform="scale(1,-1) translate(0, -1000)">
		<path d="M765 900h-532q-36 0 -66.5 -18t-48.5 -48.5t-18 -66.5v-532q0 -36 18 -67t48.5 -48.5t66.5 -17.5h532q36 0 67 17.5t48.5 48.5t17.5 67v532q0 36 -18 66.5t-48.5 48.5t-66.5 18zM585 232q0 -22 -16 -37.5t-39 -15.5h-62q-23 0 -39 15.5t-16 37.5v54q0 21 16.5 36.5 t38.5 15.5h62q23 0 39 -15.5t16 -36.5v-54zM571 452q-1 -22 -15 -37.5t-36 -15.5h-42q-22 0 -36 15.5t-15 37.5l-18 302q-1 21 17 37t41 16h64q23 0 41 -16t18 -37z" />
	</g>
</svg>