<svg xmlns="http://www.w3.org/2000/svg" viewBox="0 0 1000 1000">
	<g transform="scale(1,-1) translate(0, -1000)">
		<path d="M202 105q-43 0 -72.5 29t-29.5 71v592q0 42 30 72t72 30h592q42 0 72 -29.5t30 -72.5v-592q0 -42 -30 -71.5t-72 -29.5h-592v1zM280 237h78v542h-59q-14 -13 -51 -31.5t-69 -26.5l11 -60q29 7 91 36v-460h-1zM612 784q-75 0 -114 -66q-42 -71 -42 -214t42 -213 q39 -66 114.5 -66t115.5 66q42 70 42 212v1q0 143 -42 214q-40 66 -116 66zM531 503q0 -216 81 -216q41 0 62.5 54.5t21.5 162.5q0 218 -82.5 218t-82.5 -218v-1z" />
	</g>
</svg>