<svg xmlns="http://www.w3.org/2000/svg" viewBox="0 0 1000 1000">
	<g transform="scale(1,-1) translate(0, -1000)">
		<path d="M202 105q-43 0 -72.5 29t-29.5 71v592q0 28 13.5 51.5t37 37.5t51.5 14h592q28 0 51.5 -14t37 -37.5t13.5 -51.5v-592q0 -42 -29.5 -71t-72.5 -29h-592zM296 600q7 42 32 59q27 19 85 19h216q37 0 55 -12q21 -15 21 -48.5t-18.5 -49.5t-57.5 -16h-210v-99h224 q38 0 61 -19t23 -52t-22.5 -50t-61.5 -17h-234q-59 0 -88.5 21t-36.5 64h-128q11 -92 57 -137q55 -54 173 -54h261q69 0 117 25q43 23 65 63q19 35 19 75q0 121 -79 141q30 13 46 53q15 34 15 75q0 70 -44 108q-45 39 -135 39h-261q-78 0 -127 -25q-45 -23 -69 -67 q-20 -37 -28 -95h130v-1z" />
	</g>
</svg>