<svg xmlns="http://www.w3.org/2000/svg" viewBox="0 0 1000 1000">
	<g transform="scale(1,-1) translate(0, -1000)">
		<path d="M202 105q-43 0 -72.5 29t-29.5 71v592q0 28 13.5 51.5t37 37.5t51.5 14h592q28 0 51.5 -14t37 -37.5t13.5 -51.5v-592q0 -42 -29.5 -71t-72.5 -29h-592zM745 677v109h-368q-91 0 -146 -41q-64 -49 -64 -145v-208q0 -99 55 -143q46 -38 138 -38h296q91 0 137 38 q54 44 54 143v6q0 97 -55 141q-47 38 -136 38h-294q-33 0 -62 -39v68q0 72 100 72h345v-1zM616 480q47 0 70 -16q28 -19 28 -65t-27 -64q-23 -16 -71 -16h-221q-44 0 -67 16q-28 19 -28 64t29 65q23 16 66 16h221z" />
	</g>
</svg>