<svg xmlns="http://www.w3.org/2000/svg" viewBox="0 0 1000 1000">
	<g transform="scale(1,-1) translate(0, -1000)">
		<path d="M202 105q-43 0 -72.5 29t-29.5 71v592q0 28 13.5 51.5t37 37.5t51.5 14h592q28 0 51.5 -14t37 -37.5t13.5 -51.5v-592q0 -42 -29.5 -71t-72.5 -29h-592zM577 480q42 0 62 -3q32 -6 48 -22q20 -20 20 -59q0 -47 -27 -67q-23 -18 -70 -18h-202q-53 0 -78 4q-42 9 -45 34 h-125v-10q0 -77 54 -109q46 -27 138 -27h296q91 0 138 40q54 46 54 146v7q0 181 -192 181h-295q-18 0 -31 -6q-16 -7 -28 -25l14 123h490v109h-595l-40 -327h121q9 18 33 24q17 4 51 4h209v1z" />
	</g>
</svg>