<svg xmlns="http://www.w3.org/2000/svg" viewBox="0 0 1000 1000">
	<g transform="scale(1,-1) translate(0, -1000)">
		<path d="M202 105q-43 0 -72.5 29t-29.5 71v592q0 28 13.5 51.5t37 37.5t51.5 14h592q28 0 51.5 -14t37 -37.5t13.5 -51.5v-592q0 -42 -29.5 -71t-72.5 -29h-592zM434 307q-49 0 -66 1q-27 2 -41.5 8t-23.5 20h-124q9 -43 27 -68q21 -29 62 -44q46 -16 122 -16h254q90 0 136 37 q55 43 55 140v216q0 100 -54 145q-46 38 -137 38h-279q-91 0 -141 -42q-58 -48 -58 -147q0 -94 55 -139q48 -39 137 -39h282q19 0 32 5q17 7 30 24v-58q0 -38 -25 -59.5t-65 -21.5h-178zM397 513q-47 0 -70 16q-28 19 -28 64.5t31 65.5q26 16 75 16h203q43 0 66 -16 q28 -20 28 -65t-28 -65q-23 -16 -66 -16h-211z" />
	</g>
</svg>