<svg xmlns="http://www.w3.org/2000/svg" viewBox="0 0 1000 1000">
	<g transform="scale(1,-1) translate(0, -1000)">
		<path d="M202 105q-43 0 -72.5 29t-29.5 71v592q0 28 13.5 51.5t37 37.5t51.5 14h592q28 0 51.5 -14t37 -37.5t13.5 -51.5v-592q0 -42 -29.5 -71t-72.5 -29h-592zM654 209q69 0 115 26q40 24 60 65q17 35 17 77q0 46 -14 79q-20 50 -67 62q30 13 49 51q18 36 18 76q0 71 -41 110 q-44 42 -131 42h-318q-87 0 -132 -43q-41 -40 -41 -109q0 -38 22 -76t53 -51q-47 -12 -70 -62q-17 -36 -17 -79q0 -42 19 -77q21 -41 62 -65q48 -26 117 -26h299zM646 457q39 0 61 -19.5t22 -53t-22 -51.5t-61 -18h-284q-40 0 -61.5 18t-21.5 52t22 53t61 19h284zM632 691 q35 0 55 -15q22 -18 22 -51.5t-22 -51t-63 -17.5h-248q-40 0 -61.5 17.5t-21.5 51t21 51.5q19 15 54 15h264z" />
	</g>
</svg>