<svg xmlns="http://www.w3.org/2000/svg" viewBox="0 0 1000 1000">
	<g transform="scale(1,-1) translate(0, -1000)">
		<path d="M499 917q-113 0 -210 -57q-94 -55 -149 -149q-57 -97 -57 -210t57 -210q55 -94 149 -149q97 -57 210 -57t210 57q94 55 149 149q57 97 57 210t-57 210q-55 94 -149 149q-97 57 -210 57zM499 168q-90 0 -168 46q-75 44 -119 119q-46 78 -46 168t46 168q44 75 119 119 q78 46 168 46t168 -46q75 -44 119 -119q46 -78 46 -168t-46 -168q-44 -75 -119 -119q-78 -46 -168 -46zM564 302q0 -17 -12 -29t-29 -12h-48q-17 0 -29 12t-12 29v41q0 17 12 28.5t29 11.5h48q17 0 29 -11.5t12 -28.5v-41zM554 470q-1 -17 -11.5 -28.5t-27.5 -11.5h-32 q-17 0 -27.5 11.5t-11.5 28.5l-14 230q0 16 13.5 28t31.5 12h48q18 0 31.5 -12t13.5 -28z" />
	</g>
</svg>