<svg xmlns="http://www.w3.org/2000/svg" viewBox="0 0 1000 1000">
	<g transform="scale(1,-1) translate(0, -1000)">
		<path d="M749 647h-42v83q0 56 -28 104t-76 76t-104 28t-104 -28t-76 -76t-28 -104v-83h-41q-35 0 -59.5 -24.5t-24.5 -59.5v-415q0 -35 24.5 -59.5t59.5 -24.5h499q34 0 58.5 24.5t24.5 59.5v415q0 35 -24.5 59.5t-58.5 24.5zM499 272q-34 0 -58.5 24.5t-24.5 59t24.5 59 t58.5 24.5t58.5 -24.5t24.5 -59t-24.5 -59t-58.5 -24.5zM628 647h-258v83q0 35 17.5 64.5t47 47t64.5 17.5t64.5 -17.5t47 -47t17.5 -64.5v-83z" />
	</g>
</svg>