<svg xmlns="http://www.w3.org/2000/svg" viewBox="0 0 1000 1000">
	<g transform="scale(1,-1) translate(0, -1000)">
		<path d="M915 759l-191 161l-54 -64l191 -160zM328 856l-54 64l-191 -160l54 -64l95 80zM520 664h-63v-249l198 -119l31 52l-166 98v218zM499 831q-102 0 -189 -51q-85 -50 -134 -135q-51 -87 -51 -188.5t51 -188.5q49 -85 134 -135q87 -51 189 -51t189 51q85 50 134 135 q51 87 51 188.5t-51 188.5q-49 85 -134 135q-87 51 -189 51zM499 165q-79 0 -147 40q-66 39 -104 105q-40 67 -40 146.5t40 146.5q38 66 104 105q68 40 147 40t147 -40q66 -39 104 -105q40 -67 40 -146.5t-40 -146.5q-38 -66 -104 -105q-68 -40 -147 -40z" />
	</g>
</svg>