<svg xmlns="http://www.w3.org/2000/svg" viewBox="0 0 1000 1000">
	<g transform="scale(1,-1) translate(0, -1000)">
		<path d="M574 153q0 -22 -15.5 -37.5t-37.5 -15.5h-93q-22 0 -38 15.5t-16 37.5v94q0 22 16 37.5t38 15.5h93q22 0 37.5 -15.5t15.5 -37.5v-94zM875 644q0 -53 -7.5 -88.5t-26.5 -58.5t-54.5 -36t-90.5 -21q-43 -5 -68 -9.5t-37.5 -10t-16.5 -13t-4 -19.5v-15h-191v20q0 44 7 74.5 t26 51t51.5 33t81.5 18.5q53 8 80.5 13t42 12.5t18.5 19t4 30.5v7q0 18 -8 29.5t-26 18t-49.5 9.5t-81.5 3h-19q-56 0 -89 -3t-52.5 -11.5t-26.5 -25.5t-7 -45v-26h-186v26q0 51 7.5 88t24.5 62.5t45 41.5t68.5 24.5t93.5 10.5q50 3 122 3h20q100 0 167.5 -7.5t108 -29 t57 -59t16.5 -98.5v-19z" />
	</g>
</svg>