<svg xmlns="http://www.w3.org/2000/svg" viewBox="0 0 1000 1000">
	<g transform="scale(1,-1) translate(0, -1000)">
		<path d="M767 664h-534q-12 0 -21 -9t-9 -21l38 -505q1 -13 12 -21.5t30 -8.5h434q18 0 29 8.5t13 21.5l38 505q0 12 -9 21t-21 9zM344 159v0q-10 0 -18 9t-8 21l-26 386q0 12 9 20.5t21 8.5t21 -8.5t9 -20.5l18 -386q0 -12 -7.5 -21t-18.5 -9zM526 190q0 -13 -7.5 -22t-18.5 -9 t-18.5 9t-7.5 22l-4 385q0 12 9 20.5t21 8.5t21 -8.5t9 -20.5zM682 189q0 -12 -8 -21t-18 -9v0q-11 0 -18.5 9t-7.5 21l18 386q0 12 9 20.5t21 8.5t21 -8.5t9 -20.5zM783 794l-179 30q-12 2 -15 15l-8 33q-4 20 -14 26q-6 3 -22 3h-90q-16 0 -23 -3q-10 -6 -13 -26l-8 -33 q-2 -13 -15 -15l-179 -30q-19 -3 -31.5 -14.5t-12.5 -28.5v-28q0 -9 6.5 -15t15.5 -6h610q9 0 15.5 6t6.5 15v28q0 17 -12.5 28.5t-31.5 14.5z" />
	</g>
</svg>