<svg xmlns="http://www.w3.org/2000/svg" viewBox="0 0 1000 1000">
	<g transform="scale(1,-1) translate(0, -1000)">
		<path d="M926 313l-300 500q-35 57 -81 77t-92 0t-81 -77l-300 -500q-34 -57 -30 -105.5t43.5 -77t106.5 -28.5h614q67 0 106.5 28.5t43.5 77t-30 105.5zM585 226q0 -21 -15.5 -36.5t-38.5 -15.5h-61q-22 0 -38 15.5t-16 36.5v53q0 22 16 37t38 15h61q23 0 38.5 -15t15.5 -37v-53z M572 443q-1 -22 -15 -37t-36 -15h-41q-21 0 -35 15t-15 37l-18 297q-1 21 17 36.5t40 15.5h63q23 0 40.5 -15.5t16.5 -36.5z" />
	</g>
</svg>